<?xml version="1.0" encoding="utf-8"?>
<!-- Generator: Adobe Illustrator 22.1.0, SVG Export Plug-In . SVG Version: 6.00 Build 0)  -->
<svg version="1.1" id="レイヤー_1" xmlns="http://www.w3.org/2000/svg" xmlns:xlink="http://www.w3.org/1999/xlink" x="0px"
	 y="0px" viewBox="0 0 1920 1920" style="enable-background:new 0 0 1920 1920;" xml:space="preserve">
<style type="text/css">
	.st0{display:none;fill:#FFFFFF;stroke:#000000;stroke-width:1.01;stroke-miterlimit:10;}
	.st1{fill:#EAEAEA;}
</style>
<rect class="st0" width="1920" height="1920"/>
<g>
	<path class="st1" d="M1259.4,1207.5c2.8,0,5,0.9,7,2.2l3.1-6.1c-2.4-1.7-6.1-2.8-10.3-2.8c-13.8,0-23.6,11.8-23.6,28.2
		c0,10.7,5.7,16.4,14.6,16.2c5.5,0,9.8-1.1,14.2-3.9l-1.1-6.8c-3.5,2.6-7.6,3.9-11.8,3.9c-5.2,0-7.6-3.3-7.6-10
		C1243.9,1216.6,1250.2,1207.5,1259.4,1207.5z"/>
	<path class="st1" d="M1529.1,1210.5c0-6.3-4.4-9.8-11.8-9.8c-14.2,0-24,11.6-24,28c0,10.7,5.2,16.6,14.6,16.4
		c6.3,0,10.5-1.1,14.9-3.9l-0.9-6.8c-3.7,2.6-7.9,3.9-12.7,3.9c-5,0-7.4-3.5-7.4-10.7C1518.4,1226.9,1529.1,1220.1,1529.1,1210.5z
		 M1502.2,1222.3c1.7-9,7.2-15.1,13.5-15.1c3.3,0,5,1.5,5,4.4C1520.8,1217.5,1513.6,1221.7,1502.2,1222.3z"/>
	<path class="st1" d="M1275.7,1076.9c2-12.9,33-232,33-232c-43.9,0-51.8,5.2-58.1,56.4c-5.7,45-21.6,150.3-26.9,183.7
		c-0.7,2.8,1.1,4.8,4.1,4.8h32.8C1269.8,1089.7,1274.4,1085.6,1275.7,1076.9z"/>
	<path class="st1" d="M1483.9,1185.8c2.8,0,7.2,0.2,9,0.4l1.3-8.3h-33.9c0,1.5-0.4,6.8-0.9,9.6l-8.5,57h9.2
		c-0.2-1.7,0.4-7.4,0.9-9.6l3.1-19.7h13.5c2.6,0,7.2,0.2,9,0.4l1.1-8.1h-22.5l3.5-21.8H1483.9z"/>
	<path class="st1" d="M1310,1214.7c1.7-10-0.7-14.2-7.9-14.2c-7.2,0-14.2,6.3-18.3,16.2h-0.2c1.3-4.6,3.5-10.7,4.1-14.9l3.9-25.6
		l-9,0.9c0,2-0.2,5.9-0.9,9.8l-9,57h8.5c-0.2-2,0.2-5.5,0.9-9.4l0.7-3.7c2-12.2,9.6-23.4,15.9-23.4c3.1,0,3.7,2,2.8,8.1l-4.4,28.6
		h8.5c-0.2-2,0.2-5.7,0.9-9.6L1310,1214.7z"/>
	<path class="st1" d="M1424.9,1176.2l-9,0.9c0,2-0.2,5.7-0.9,9.8l-6.6,42.4c-1.7,10.7,1.1,15.9,8.5,15.9c3.1,0,5.9-0.4,8.3-1.3
		l-0.7-6.6c-1.7,0.7-3.3,0.9-5,0.9c-3.3,0-4.1-3.3-2.8-11.1L1424.9,1176.2z"/>
	<path class="st1" d="M1616,1201.6h-8.7c0,2.2-0.2,6.1-0.9,9.6l-5,33.2h8.5c-0.2-2.4,0.2-6.3,0.9-9.8L1616,1201.6z"/>
	<path class="st1" d="M1690.7,1244.2c0-3.5,0.4-7,0.9-9.6l5.2-33h-10.3c-16.8,0-28.8,13.3-28.8,30.6c0,8.5,3.5,13.1,10.5,13.1
		c7.4,0,13.3-4.8,18.1-14.6h0.2c-2.2,5.5-2.8,9.8-2.8,13.5H1690.7z M1686.2,1217.5c-1.7,11.6-8.7,20.7-15.3,21
		c-3.3,0-4.8-2.4-4.8-7.9c0-10.9,8.3-22.3,19-22.3h2.6L1686.2,1217.5z"/>
	<path class="st1" d="M1625.2,901.3c-5.7,45-21.6,150.3-26.9,183.7c-0.7,2.8,1.1,4.8,4.1,4.8h32.8c9.2,0,13.8-4.1,15.1-12.9
		c2-12.9,33-232,33-232C1639.4,844.9,1631.3,850.1,1625.2,901.3z"/>
	<path class="st1" d="M1634.2,1236.7h-0.2l-1.1-10.7l-2.6-24.5h-8.5l5.5,42.4h10.5c8.3-12.2,15.9-28.8,19.9-42.6h-8.7
		C1646,1212.5,1639.8,1226.7,1634.2,1236.7z"/>
	<path class="st1" d="M1721.1,1176.2l-9,0.9c0,2-0.2,5.7-0.9,9.8l-6.6,42.4c-1.7,10.7,1.1,15.9,8.5,15.9c3.1,0,5.9-0.4,8.3-1.3
		l-0.7-6.6c-1.7,0.7-3.3,0.9-5,0.9c-3.3,0-4.1-3.3-2.8-11.1L1721.1,1176.2z"/>
	<path class="st1" d="M1584.8,1208.3h11.4l1.1-6.6h-11.4l2.2-13.8l-8.7,0.9c0.2,2-0.2,6.1-0.9,9.8l-0.4,2.8h-6.6l-1.1,6.6h6.3
		l-3.3,21.2c-1.7,10.9,1.1,15.9,9.2,15.9c3.1,0,7.6-1.1,9.8-2.6l-0.7-6.3c-2.2,1.3-5,2-7.2,2c-3.9,0-4.2-3.7-3.1-10.3L1584.8,1208.3
		z"/>
	<path class="st1" d="M1551,1206.8c3.3,0,6.6,1.3,9.4,3.5l2.8-5.9c-3.7-2.6-7.9-3.9-12.9-3.9c-8.3,0-13.5,4.2-13.8,10.9
		c0,4.6,2.2,7.9,9.2,12.9c4.2,2.8,7.2,5.5,7.2,8.5c0,4.4-2.4,5.7-6.3,5.7c-3.7,0-7.6-2-12-5.9l-3.3,6.3c4.8,4.4,9.8,6.3,15.9,5.9
		c8.5,0,14-4.8,14-11.1c0-6.3-2.6-9.6-9-13.8c-3.7-2.6-7.2-5-7.2-8.7C1545.1,1208.3,1547,1206.8,1551,1206.8z"/>
	<path class="st1" d="M1520.2,845.3c-14.2,0-13.1,5.2-8.7,15.9c13.5,33.2-36.5,137.6-50.2,164.2c-5.7,10.9-15.3,14.9-28,14.9h-46.1
		l6.3,34.5c2.2,9.8,6.1,13.8,15.1,14.6c1.3,0.2,3.7,0.2,5,0.2c1.5,0,43.9-0.2,46.3-0.2c12.2,0,19.7-4.6,25.8-14.6
		c31.2-52,65.5-147.2,95-229.6H1520.2z"/>
	<path class="st1" d="M1659.1,757.5c-30.1,12.4-27.1,52.6-18.1,73.4c11.8-25.1,36.7-15.3,50.2-33.4
		C1710,771.9,1686.4,746.4,1659.1,757.5z"/>
	<path class="st1" d="M1619.5,1188.3c0-3.1-2.2-5.5-5.5-5.5c-3.1,0-5.5,2.4-5.5,5.5c0,2.8,2.4,5.5,5.5,5.5
		C1617.4,1193.7,1619.5,1191.3,1619.5,1188.3z"/>
	<path class="st1" d="M1215,1185c4.6,0,9.4,1.7,12.9,4.6l3.9-7c-4.2-3.5-10.3-5.5-17.3-5.5c-11.8,0-19.2,6.6-19.2,15.7
		c-0.2,9.2,4.6,14.2,13.5,20.5c7.6,5.7,10.3,9.2,10.3,14.2c0,6.1-4.6,9.8-12,9.8c-5.9,0-12-3.5-17.9-10l-4.4,7.2
		c6.8,7.2,14,10.7,22.5,10.7c12.9,0,21-7,21-17.9c0-10.5-7.2-15.5-14.4-20.7c-7.2-5.2-9.6-8.5-9.6-13.1
		C1204.3,1188.3,1208.5,1185,1215,1185z"/>
	<path class="st1" d="M1156.7,1244.2c0-3.5,0.4-7,0.9-9.6l5.2-33h-10.3c-16.8,0-28.8,13.3-28.8,30.6c0,8.5,3.5,13.1,10.3,13.1
		c7.4,0,13.3-4.8,18.1-14.6h0.2c-2.2,5.5-2.8,9.8-2.8,13.5H1156.7z M1152.1,1217.5c-1.7,11.6-8.7,20.7-15.3,21
		c-3.3,0-4.8-2.4-4.8-7.9c0-10.9,8.3-22.3,19-22.3h2.6L1152.1,1217.5z"/>
	<path class="st1" d="M764.7,760.2c-66.8,14.9-93.3,73.2-114.2,103.5c80.8-56.8,128.2-35.4,154.2-52
		C838.7,790.1,806.2,751,764.7,760.2z"/>
	<path class="st1" d="M110.1,1109.4c98.1,175,239.2,169.7,300.5,157.9c19.4-3.7,30.1-17.9,23.8-34.3c-5-12.9-33.6-53.9-50.2-83.4
		C276.3,1172.7,162,1141.9,110.1,1109.4z"/>
	<path class="st1" d="M1742.5,1237.2l-1.3,7.2h35.6l1.3-8.5c-1.5,0.2-5.7,0.4-8.7,0.4h-9.2c-2.4,0-4.6,0-6.8,0v-0.2
		c13.5-12.9,31-30.4,31-46.1c0-7.9-4.8-12-14-12c-5.9,0-12,1.5-17.3,4.6l0.4,7.9c4.2-2.6,9.6-4.6,14.2-4.6c5.2,0,7.4,2.4,7.4,7
		C1775.3,1205.1,1755.4,1224.5,1742.5,1237.2z"/>
	<path class="st1" d="M1920,1208.2c-1.6,13.8-6.9,29.2-17.2,29.4c-6.3,0-9.4-4.6-9.4-14c0-15.1,5.2-37.8,17.7-37.8
		c4.9,0,7.8,2.6,8.9,8v-14.1c-2.3-1.1-4.9-1.8-8-1.8c-19,0-27.5,23.6-27.5,45.4c0,13.8,6.1,21.8,17,21.8c7.9,0,14-4,18.5-10.3
		V1208.2z"/>
	<path class="st1" d="M523.5,1216.6c112-73.4,126.5-259.3,237.2-361.7c-203.1,62.5-158.8,186.1-351.2,282.8
		c14.9,26.4,36.3,59.2,44.1,69.9C468.3,1227.3,494.7,1235.6,523.5,1216.6z"/>
	<path class="st1" d="M1898,801.7c-2.8,19.4-7.6,72.3-17.9,133c-12,72.7-41.7,111.4-76.7,115.5c-69.2,8.3-52.2-148.5,69.7-166.7
		l4.8-38.7c-186.3,14.2-212.5,248.1-100,248.1c41.7,0,64.2-15.9,87.1-53.1l1.7,0.4c-1.1,7.4-3.5,24.9-6.1,43.7
		c-0.4,3.1,1.3,5.7,4.4,5.7c10.7,0,15.3,0,24.7,0c9.4,0,15.5-5,16.8-14c2.8-18.8,7.8-53.2,13.5-92.7V758.5
		C1904.9,765.5,1901.2,779.7,1898,801.7z"/>
	<path class="st1" d="M1834.7,1199.8c0-13.8-5.9-21.8-17.3-21.8c-19,0-27.5,23.6-27.5,45.4c0,13.8,5.9,21.8,17,21.8
		C1826.2,1245.3,1834.7,1221.7,1834.7,1199.8z M1798.6,1223.6c0-15.1,5.2-37.8,17.7-37.8c6.3,0,9.4,4.4,9.4,13.8
		c0,15.1-5,37.8-17.7,38C1801.7,1237.6,1798.6,1233,1798.6,1223.6z"/>
	<path class="st1" d="M1837.3,1237.2l-1.5,7.2h35.6l1.5-8.5c-1.5,0.2-5.7,0.4-8.7,0.4h-9.2c-2.4,0-4.6,0-6.8,0v-0.2
		c13.5-12.9,31-30.4,31-46.1c0-7.9-4.8-12-14-12c-5.9,0-12,1.5-17.3,4.6l0.4,7.9c4.2-2.6,9.6-4.6,14.2-4.6c5.2,0,7.4,2.4,7.4,7
		C1870.1,1205.1,1850.2,1224.5,1837.3,1237.2z"/>
	<path class="st1" d="M0,941.1c9.8,12.6,19.5,24.7,28.8,36.1c44.1,53.9,114.5,109.6,311.9,95.9c-92.2-152-179.3-281.3-207.9-298.6
		c-5.5-3.3-13.5-4.4-18.1-4.4L0,770.3V941.1z"/>
	<path class="st1" d="M991.4,1200.5c0.7-3.5,1.1-7.6,1.3-11.1h0.2c0.7,4.2,2.2,8.5,3.5,12.4l14.9,42.4h12.2c0-2.2,0.4-6.3,0.9-9.6
		l9.4-56.8h-9.4c0.2,1.5-0.4,6.8-0.9,9.6l-5.7,36c-0.4,2.8-0.9,6.3-1.1,9.8h-0.2c-0.9-3.3-1.7-6.8-2.8-10.3l-15.5-45.2h-12.4
		c0.2,1.5-0.4,6.8-0.9,9.6l-9,56.6h9.2c-0.2-1.5,0.4-6.6,0.9-9.4L991.4,1200.5z"/>
	<path class="st1" d="M1112.8,1244.6c0-3.1,0.4-6.3,0.9-9.6l9.2-58.5l-9,0.9c0,2-0.2,6.1-0.9,9.8l-2.2,14.6h-2.6
		c-16.6,0-28.4,13.3-28.4,30.6c0,8.3,3.5,12.9,10.3,13.3c7.4,0,13.3-5,18.1-14.6h0.4c-2.2,5.2-2.8,10-2.8,13.5H1112.8z
		 M1108.4,1217.1c-1.7,11.8-8.7,21.2-15.5,21.4c-3.5,0-4.8-2.2-4.8-7.6c0-11.1,8.3-22.5,19-22.5h2.6L1108.4,1217.1z"/>
	<path class="st1" d="M1068.9,1244.2c0-3.5,0.4-7,0.9-9.6l5.2-33h-10.3c-16.8,0-28.8,13.3-28.8,30.6c0,8.5,3.7,13.1,10.5,13.1
		c7.4,0,13.3-4.8,18.1-14.6h0.2c-2.2,5.5-2.8,9.8-2.8,13.5H1068.9z M1064.3,1217.5c-1.7,11.6-8.7,20.7-15.3,21
		c-3.3,0-4.8-2.4-4.8-7.9c0-10.9,8.3-22.3,19-22.3h2.6L1064.3,1217.5z"/>
	<path class="st1" d="M1377.1,1245.3c13.8,0,24-11.8,23.8-28.4c0-10-5.5-16.2-15.5-16.2c-12.9,0-23.6,11.4-23.6,28
		C1361.8,1238.7,1367,1245.3,1377.1,1245.3z M1384.5,1207.5c5.7,0,8.1,3.5,8.1,10.5c0,11.1-6.6,20.3-14.4,20.3
		c-5.7,0-8.1-3.3-8.1-10.7C1370.1,1216.6,1376.9,1207.5,1384.5,1207.5z"/>
	<path class="st1" d="M1145.8,845.3c-14.2,0-13.1,5.2-8.7,15.9c13.5,33.2-36.5,137.6-50.2,164.2c-5.7,10.9-15.3,14.9-28,14.9h-46.1
		l6.3,34.5c2.2,9.8,6.1,13.8,15.1,14.6c1.3,0.2,3.7,0.2,5,0.2c1.5,0,43.9-0.2,46.3-0.2c12.2,0,19.7-4.6,25.8-14.6
		c31.2-52,65.5-147.2,95-229.6H1145.8z"/>
	<path class="st1" d="M1036.4,1027.3c19.7,0,21-1.5,18.6-20.3c-2-14.6-18.1-129.5-22.3-161.6h-55.9l33.6,182.4
		C1010.4,1027.7,1033.3,1027.3,1036.4,1027.3z"/>
	<path class="st1" d="M1332.8,1245.3c13.8,0,24-11.8,23.8-28.4c0-10-5.7-16.2-15.5-16.2c-12.9,0-23.6,11.4-23.6,28
		C1317.5,1238.7,1322.7,1245.3,1332.8,1245.3z M1340,1207.5c5.7,0,8.1,3.5,8.1,10.5c0.2,11.1-6.3,20.3-14.4,20.3
		c-5.7,0-8.1-3.3-8.1-10.7C1325.5,1216.6,1332.3,1207.5,1340,1207.5z"/>
	<path class="st1" d="M1410.7,1027.3c19.7,0,21-1.5,18.6-20.3c-1.7-14.6-18.1-129.5-22.3-161.6h-55.9l33.6,182.4
		C1384.7,1027.7,1407.7,1027.3,1410.7,1027.3z"/>
	<path class="st1" d="M1316.6,797.5c18.8-25.6-4.8-51.1-32.1-40c-30.1,12.4-27.1,52.6-18.1,73.4
		C1278.1,805.8,1303.3,815.6,1316.6,797.5z"/>
</g>
<g>
</g>
<g>
</g>
<g>
</g>
<g>
</g>
</svg>
