<svg id="レイヤー_1" data-name="レイヤー 1" xmlns="http://www.w3.org/2000/svg" viewBox="0 0 1795.03 449.07"><defs><style>.cls-1{fill:#eaeaea;}</style></defs><title>concept</title><path class="cls-1" d="M1054.26,772.05a74.91,74.91,0,0,0-.81,8.35H1042.8l-12.86-36.68a86.67,86.67,0,0,1-3.11-10.73h-.25c-.24,3-.65,6.55-1.14,9.66l-4.75,29.56a58,58,0,0,0-.74,8.19h-8l7.7-49a49.59,49.59,0,0,0,.73-8.35h10.81l13.51,39.14c1,2.95,1.64,6,2.38,8.93h.16c.25-3,.57-6,1-8.52l4.91-31.2a61.89,61.89,0,0,0,.82-8.35h8.1Z" transform="translate(-62.48 -355.47)"/><path class="cls-1" d="M1064.31,769.92c0-15,10.31-26.45,24.89-26.45h8.93l-4.59,28.58a56.1,56.1,0,0,0-.82,8.35h-6.14a34,34,0,0,1,2.37-11.71l-.24-.08c-4.18,8.44-9.34,12.61-15.64,12.61C1067.42,781.22,1064.31,777.29,1064.31,769.92ZM1089,757.23l1.31-7.94H1088c-9.17,0-16.46,9.82-16.46,19.24,0,4.75,1.23,6.71,4.1,6.71C1081.34,775.24,1087.4,767.22,1089,757.23Z" transform="translate(-62.48 -355.47)"/><path class="cls-1" d="M1102.36,770c0-14.9,10.24-26.53,24.57-26.53h2.29l2-12.61a54.36,54.36,0,0,0,.73-8.6l7.7-.82-8,50.69a61.32,61.32,0,0,0-.82,8.27h-6.14a30.42,30.42,0,0,1,2.37-11.71l-.33-.08c-4.09,8.35-9.33,12.61-15.64,12.61C1105.39,781.22,1102.36,777.29,1102.36,770Zm24.73-13.1,1.15-7.61H1126c-9.17,0-16.46,9.74-16.46,19.4,0,4.75,1.23,6.55,4.09,6.55C1119.39,775.24,1125.45,767.14,1127.09,756.9Z" transform="translate(-62.48 -355.47)"/><path class="cls-1" d="M1140.26,769.92c0-15,10.31-26.45,24.89-26.45h8.93l-4.59,28.58a56.1,56.1,0,0,0-.82,8.35h-6.14a34.06,34.06,0,0,1,2.38-11.71l-.25-.08c-4.17,8.44-9.33,12.61-15.64,12.61C1143.37,781.22,1140.26,777.29,1140.26,769.92Zm24.65-12.69,1.31-7.94h-2.3c-9.17,0-16.46,9.82-16.46,19.24,0,4.75,1.23,6.71,4.1,6.71C1157.29,775.24,1163.35,767.22,1164.91,757.23Z" transform="translate(-62.48 -355.47)"/><path class="cls-1" d="M1193.13,771.88l3.84-6.21c5.08,5.64,10.32,8.67,15.48,8.76,6.47.08,10.32-3.2,10.32-8.6,0-4.34-2.21-7.29-8.93-12.2-7.78-5.57-11.87-9.83-11.79-17.7s6.47-13.67,16.71-13.67c6.06,0,11.3,1.72,15,4.67l-3.43,6a18.22,18.22,0,0,0-11.06-3.93c-5.73,0-9.17,2.78-9.26,7.45-.08,3.93,2,6.71,8.28,11.38,6.22,4.5,12.44,8.84,12.44,17.93,0,9.5-7,15.48-18.09,15.48C1205.25,781.22,1199,778.27,1193.13,771.88Z" transform="translate(-62.48 -355.47)"/><path class="cls-1" d="M1237.08,767c0-14.09,8.59-24.32,20.39-24.32a15.34,15.34,0,0,1,8.84,2.46l-2.7,5.24a9.61,9.61,0,0,0-6-1.8c-7.94,0-13.35,8-13.35,18,0,5.9,2.13,8.68,6.55,8.68a17.33,17.33,0,0,0,10.24-3.36l.9,5.9a21.88,21.88,0,0,1-12.28,3.44C1241.82,781.22,1237.08,776.23,1237.08,767Z" transform="translate(-62.48 -355.47)"/><path class="cls-1" d="M1277,730.78a56.07,56.07,0,0,0,.74-8.52l7.69-.82-3.43,22.2c-.58,3.68-2.46,8.84-3.53,12.85l.25.09c3.52-8.52,9.66-13.93,15.8-13.93,6.31,0,8.27,3.52,6.88,12.37l-2.78,17.11a46.87,46.87,0,0,0-.82,8.27h-7.37l3.85-24.73c.74-5.24.16-7-2.46-7-5.57,0-12,9.58-13.84,20.23l-.49,3.27a45.06,45.06,0,0,0-.82,8.19h-7.45Z" transform="translate(-62.48 -355.47)"/><path class="cls-1" d="M1307.79,766.89c0-14.41,9.25-24.24,20.39-24.24,8.6,0,13.35,5.32,13.35,14,.16,14.42-8.68,24.57-20.56,24.57C1312.37,781.22,1307.79,775.65,1307.79,766.89Zm26.61-9.34c0-6-2.13-9-7-9-6.63,0-12.45,7.94-12.45,17.44,0,6.39,2,9.25,7,9.25C1328.84,775.24,1334.57,767.22,1334.4,757.55Z" transform="translate(-62.48 -355.47)"/><path class="cls-1" d="M1346.17,766.89c0-14.41,9.26-24.24,20.39-24.24,8.6,0,13.35,5.32,13.35,14,.17,14.42-8.68,24.57-20.55,24.57C1350.76,781.22,1346.17,775.65,1346.17,766.89Zm26.62-9.34c0-6-2.13-9-7-9-6.64,0-12.45,7.94-12.45,17.44,0,6.39,2,9.25,7,9.25C1367.22,775.24,1373,767.22,1372.79,757.55Z" transform="translate(-62.48 -355.47)"/><path class="cls-1" d="M1386.69,767.38l5.73-36.6a47.73,47.73,0,0,0,.74-8.52l7.69-.82-7,44c-1.06,6.71-.32,9.66,2.46,9.66a12.35,12.35,0,0,0,4.26-.74l.57,5.66a20.24,20.24,0,0,1-7.12,1.22C1387.59,781.22,1385.21,776.72,1386.69,767.38Z" transform="translate(-62.48 -355.47)"/><path class="cls-1" d="M1430.64,731.43a60,60,0,0,0,.74-8.35h29.23l-1.14,7.13a66.07,66.07,0,0,0-7.7-.42H1438.5l-3,18.84H1455l-1,7a71.3,71.3,0,0,0-7.78-.41h-11.79l-2.62,17a64.23,64.23,0,0,0-.83,8.27h-8Z" transform="translate(-62.48 -355.47)"/><path class="cls-1" d="M1460,766.89c0-14.08,8.59-24.24,20.71-24.24,6.47,0,10.24,3.12,10.16,8.6,0,8.27-9.17,14.17-23.59,14.82-.08,6.31,2,9.33,6.39,9.33a18.21,18.21,0,0,0,11-3.43l.82,5.81c-3.76,2.46-7.45,3.44-12.77,3.44C1464.52,781.22,1460,776.06,1460,766.89Zm23.82-14.74c0-2.46-1.55-3.76-4.25-3.76-5.49,0-10.24,5.32-11.79,13.1C1477.62,760.83,1483.84,757.15,1483.84,752.15Z" transform="translate(-62.48 -355.47)"/><path class="cls-1" d="M1492.75,775.82l2.78-5.41c3.77,3.44,7.13,5.08,10.49,5.08s5.48-1.23,5.48-4.83c0-2.7-2.62-4.83-6.22-7.37-6.06-4.26-7.94-7.13-7.86-11.22.16-5.9,4.67-9.42,11.95-9.42a18.15,18.15,0,0,1,11.06,3.44l-2.54,5.16a12.89,12.89,0,0,0-8.11-3c-3.35,0-5.16,1.31-5.16,3.77,0,3.28,3,5.24,6.31,7.53,5.4,3.69,7.78,6.47,7.78,12s-4.75,9.66-12,9.66A19.7,19.7,0,0,1,1492.75,775.82Z" transform="translate(-62.48 -355.47)"/><path class="cls-1" d="M1529.26,767.38l2.86-18.26h-5.57l.9-5.65h5.74l.32-2.54a46.73,46.73,0,0,0,.82-8.6l7.54-.82-1.89,12h9.83l-.9,5.65h-9.75l-2.78,17c-.9,5.66-.74,8.93,2.7,8.93a12.69,12.69,0,0,0,6.14-1.64l.58,5.57a18.83,18.83,0,0,1-8.6,2.21C1530.24,781.22,1527.78,777,1529.26,767.38Z" transform="translate(-62.48 -355.47)"/><path class="cls-1" d="M1557.9,751.82a49.67,49.67,0,0,0,.74-8.35h7.61l-4.58,28.5a51,51,0,0,0-.82,8.43h-7.37Zm1.8-20a4.74,4.74,0,0,1,4.67-4.75,4.61,4.61,0,0,1,4.75,4.75,4.65,4.65,0,0,1-4.75,4.75A4.74,4.74,0,0,1,1559.7,731.84Z" transform="translate(-62.48 -355.47)"/><path class="cls-1" d="M1571,743.47h7.29l2.29,21.21,1,9.33h.25a137.35,137.35,0,0,0,12.69-30.54H1602a146.52,146.52,0,0,1-17.12,36.93h-9Z" transform="translate(-62.48 -355.47)"/><path class="cls-1" d="M1602.17,769.92c0-15,10.32-26.45,24.9-26.45H1636l-4.58,28.58a56.1,56.1,0,0,0-.82,8.35h-6.14a34,34,0,0,1,2.37-11.71l-.25-.08c-4.17,8.44-9.33,12.61-15.64,12.61C1605.29,781.22,1602.17,777.29,1602.17,769.92Zm24.65-12.69,1.31-7.94h-2.29c-9.17,0-16.46,9.82-16.46,19.24,0,4.75,1.23,6.71,4.09,6.71C1619.21,775.24,1625.26,767.22,1626.82,757.23Z" transform="translate(-62.48 -355.47)"/><path class="cls-1" d="M1642.85,767.38l5.73-36.6a47.73,47.73,0,0,0,.74-8.52l7.7-.82-7,44c-1.07,6.71-.33,9.66,2.45,9.66a12.27,12.27,0,0,0,4.26-.74l.57,5.66a20.16,20.16,0,0,1-7.12,1.22C1643.75,781.22,1641.37,776.72,1642.85,767.38Z" transform="translate(-62.48 -355.47)"/><path class="cls-1" d="M1675.58,774.18c11.22-10.89,28.42-27.76,28.42-38.33,0-3.93-2-6-6.39-6a24.08,24.08,0,0,0-12.2,3.93l-.33-6.72a30,30,0,0,1,15-4c7.94,0,12,3.69,12,10.4,0,13.51-15.14,28.74-26.85,39.88l-.09.25c1.81-.08,3.85-.08,5.82-.08h7.94c2.62,0,6.14-.25,7.62-.42l-1.23,7.29H1674.6Z" transform="translate(-62.48 -355.47)"/><path class="cls-1" d="M1716.5,762.39c0-18.84,7.38-39.31,23.83-39.31,9.83,0,15,7,15,18.84,0,18.83-7.37,39.3-23.91,39.3C1721.66,781.22,1716.5,774.18,1716.5,762.39Zm31.12-20.72c0-8.19-2.7-11.88-8.1-11.88-10.81,0-15.24,19.66-15.24,32.68,0,8.19,2.71,12,8.11,12C1743.12,774.51,1747.62,754.77,1747.62,741.67Z" transform="translate(-62.48 -355.47)"/><path class="cls-1" d="M1757.51,774.18c11.22-10.89,28.41-27.76,28.41-38.33,0-3.93-2-6-6.39-6a24.08,24.08,0,0,0-12.2,3.93l-.32-6.72a30,30,0,0,1,15-4c7.94,0,12,3.69,12,10.4,0,13.51-15.15,28.74-26.86,39.88l-.08.25c1.8-.08,3.85-.08,5.81-.08h7.94c2.62,0,6.15-.25,7.62-.42l-1.23,7.29h-30.71Z" transform="translate(-62.48 -355.47)"/><path class="cls-1" d="M1798.43,762.39c0-18.84,7.37-39.31,23.83-39.31,9.83,0,15,7,15,18.84,0,18.83-7.38,39.3-23.92,39.3C1803.59,781.22,1798.43,774.18,1798.43,762.39Zm31.12-20.72c0-8.19-2.7-11.88-8.11-11.88-10.81,0-15.23,19.66-15.23,32.68,0,8.19,2.7,12,8.11,12C1825,774.51,1829.55,754.77,1829.55,741.67Z" transform="translate(-62.48 -355.47)"/><g id="logotype"><path class="cls-1" d="M1080.71,575.1c2,16.24.87,17.49-16.09,17.49-2.59,0-22.54.41-22.54.41L1013,435.23h48.35c3.69,27.89,17.77,127.17,19.35,139.87" transform="translate(-62.48 -355.47)"/><path class="cls-1" d="M1300.35,435s-26.9,189.6-28.55,200.64c-1.14,7.6-5.06,11.12-13,11.12h-28.42c-2.73,0-4.09-1.62-3.68-4.22,4.46-28.84,18.41-119.94,23.3-158.86,5.54-44.16,12.38-48.68,50.38-48.68" transform="translate(-62.48 -355.47)"/><path class="cls-1" d="M1263.7,422.73c-7.84-17.9-10.45-52.75,15.64-63.48,23.63-9.72,44,12.43,27.79,34.51-11.64,15.88-33.25,7.29-43.43,29" transform="translate(-62.48 -355.47)"/><path class="cls-1" d="M1624.3,435s-26.9,189.6-28.55,200.64c-1.14,7.6-5.06,11.12-13,11.12H1554.3c-2.73,0-4.08-1.62-3.68-4.22,4.46-28.84,18.41-119.94,23.3-158.86,5.54-44.16,12.38-48.68,50.38-48.68" transform="translate(-62.48 -355.47)"/><path class="cls-1" d="M1587.65,422.73c-7.84-17.9-10.45-52.75,15.64-63.48,23.63-9.72,44,12.43,27.79,34.51-11.64,15.88-33.24,7.29-43.43,29" transform="translate(-62.48 -355.47)"/><path class="cls-1" d="M1062.81,646.56c-7.75-.71-11.1-4.11-13.11-12.7L1044.31,604h39.91c11,0,19.22-3.37,24.13-12.88,11.87-23,55.2-113.29,43.49-142.16-3.74-9.22-4.65-13.73,7.65-13.73h52.29c-25.43,71.25-55.11,153.67-82.28,198.62-5.27,8.7-11.77,12.75-22.23,12.75l-40,.11c-1.29,0-3.39-.05-4.49-.15" transform="translate(-62.48 -355.47)"/><path class="cls-1" d="M1404.61,575.1c2,16.24.87,17.49-16.08,17.49-2.6,0-22.55.41-22.55.41l-29.07-157.77h48.36C1389,463.12,1403,562.4,1404.61,575.1" transform="translate(-62.48 -355.47)"/><path class="cls-1" d="M1386.71,646.56c-7.75-.71-11.1-4.11-13.11-12.7L1368.22,604h39.9c11,0,19.23-3.37,24.13-12.88,11.88-23,55.21-113.29,43.49-142.16-3.74-9.22-4.65-13.73,7.65-13.73h52.29c-25.43,71.25-55.1,153.67-82.28,198.62-5.27,8.7-11.77,12.75-22.22,12.75l-40,.11c-1.28,0-3.39-.05-4.49-.15" transform="translate(-62.48 -355.47)"/><path class="cls-1" d="M1728.26,612.41c30.17-3.63,55.89-37,66.42-99.89,8.78-52.52,13-98.29,15.41-115,4.14-28.48,9.17-42,47.43-42,0,0-31.47,222-40,279-1.16,7.68-6.51,12.14-14.57,12.14s-12.09.08-21.31.08c-2.7,0-4.1-2.33-3.73-4.92,2.29-16.22,4.42-31.38,5.33-37.79l-1.59-.43c-19.8,32.16-39.4,45.95-75.37,45.95-97.23,0-74.64-202.46,86.62-214.57l-4.08,33.52c-105.72,15.58-120.33,151.14-60.54,143.94" transform="translate(-62.48 -355.47)"/></g><g id="logo"><path class="cls-1" d="M730.79,451.21c18.19-26.21,41-76.8,98.86-89.57,35.91-7.91,64,25.82,34.62,44.55-22.56,14.36-63.54-4.09-133.48,45" transform="translate(-62.48 -355.47)"/><path class="cls-1" d="M462.86,632.42C383.18,501,307.8,389,282.94,374.13c-4.65-2.78-11.66-3.83-15.74-3.83l-204.72.14c36.57,55.71,87.4,126.42,130.48,178.9,38.32,46.69,99,94.84,269.9,83.08" transform="translate(-62.48 -355.47)"/><path class="cls-1" d="M621,756.53C717.9,693,730.48,532.26,826.27,443.63c-175.72,54-137.35,161.07-303.81,244.7,12.89,22.89,31.35,51.26,38.19,60.46,12.64,17,35.37,24.09,60.34,7.74" transform="translate(-62.48 -355.47)"/><path class="cls-1" d="M500.42,698.38c14.3,25.5,39.19,61.11,43.44,72.21,5.44,14.23-3.82,26.42-20.51,29.62C470.23,810.41,348.18,815,263.27,663.59c45.1,28.3,143.88,54.95,237.15,34.79" transform="translate(-62.48 -355.47)"/></g></svg>