<?xml version="1.0" encoding="utf-8"?>
<!-- Generator: Adobe Illustrator 22.1.0, SVG Export Plug-In . SVG Version: 6.00 Build 0)  -->
<svg version="1.1" xmlns="http://www.w3.org/2000/svg" xmlns:xlink="http://www.w3.org/1999/xlink" x="0px" y="0px"
	 viewBox="0 0 1920 1920" style="enable-background:new 0 0 1920 1920;" xml:space="preserve">
<style type="text/css">
	.st0{fill:#FFFFFF;}
	.st1{fill:#9C4998;}
	.st2{fill:#4653A2;}
	.st3{fill:#674498;}
	.st4{fill:#584C9D;}
	.st5{fill:#595757;}
	.st6{fill:#31BDEB;}
	.st7{fill:#EC79AC;}
	.st8{fill:#F5B9D3;}
	.st9{fill:#F8B74A;}
	.st10{fill:#C3D94E;}
	.st11{fill:#FCC92C;}
	.st12{fill:#2E59A7;}
	.st13{fill:#E6A732;}
	.st14{fill:#D18F36;}
	.st15{display:none;fill:#FFFFFF;}
	.st16{fill:#040000;}
	.st17{fill:#D39111;}
	.st18{fill:#36B9EC;}
	.st19{fill:#EC7AAC;}
	.st20{fill:#E94746;}
	.st21{fill:#EA5548;}
	.st22{fill:#AACF52;}
	.st23{fill:none;stroke:#999999;stroke-miterlimit:10;}
	.st24{fill:#BFC0C0;}
	.st25{fill:#9FA0A0;}
	.st26{fill:#7D7D7D;}
</style>
<g id="レイヤー_1">
	<rect class="st15" width="1920" height="1920"/>
	<g>
		<path class="st5" d="M766,1521.4c1.2,9.7,0.5,10.4-9.6,10.4c-1.6,0-13.5,0.2-13.5,0.2l-17.4-94.2h28.9
			C756.7,1454.5,765.1,1513.8,766,1521.4"/>
		<path class="st5" d="M897.2,1437.7c0,0-16.1,113.3-17.1,119.9c-0.7,4.5-3,6.6-7.8,6.6h-17c-1.6,0-2.4-1-2.2-2.5
			c2.7-17.2,11-71.6,13.9-94.9C870.5,1440.4,874.5,1437.7,897.2,1437.7"/>
		<path class="st5" d="M875.3,1430.4c-4.7-10.7-6.2-31.5,9.3-37.9c14.1-5.8,26.3,7.4,16.6,20.6
			C894.3,1422.5,881.4,1417.4,875.3,1430.4"/>
		<path class="st5" d="M1090.8,1437.7c0,0-16.1,113.3-17.1,119.9c-0.7,4.5-3,6.6-7.8,6.6h-17c-1.6,0-2.4-1-2.2-2.5
			c2.7-17.2,11-71.6,13.9-94.9C1064,1440.4,1068.1,1437.7,1090.8,1437.7"/>
		<path class="st5" d="M1068.9,1430.4c-4.7-10.7-6.2-31.5,9.3-37.9c14.1-5.8,26.3,7.4,16.6,20.6
			C1087.9,1422.5,1074.9,1417.4,1068.9,1430.4"/>
		<path class="st5" d="M755.3,1564.1c-4.6-0.4-6.6-2.5-7.8-7.6l-3.2-17.8h23.8c6.6,0,11.5-2,14.4-7.7c7.1-13.8,33-67.7,26-84.9
			c-2.2-5.5-2.8-8.2,4.6-8.2h31.2c-15.2,42.6-32.9,91.8-49.1,118.6c-3.1,5.2-7,7.6-13.3,7.6c-1.2,0-23.1,0.1-23.9,0.1
			C757.3,1564.2,756,1564.1,755.3,1564.1"/>
		<path class="st5" d="M959.5,1521.4c1.2,9.7,0.5,10.4-9.6,10.4c-1.6,0-13.5,0.2-13.5,0.2l-17.4-94.2H948
			C950.2,1454.5,958.6,1513.8,959.5,1521.4"/>
		<path class="st5" d="M948.8,1564.1c-4.6-0.4-6.6-2.5-7.8-7.6l-3.2-17.8h23.8c6.6,0,11.5-2,14.4-7.7c7.1-13.8,33-67.7,26-84.9
			c-2.2-5.5-2.8-8.2,4.6-8.2h31.2c-15.2,42.6-32.9,91.8-49.1,118.6c-3.1,5.2-7,7.6-13.3,7.6c-1.2,0-23.1,0.1-23.9,0.1
			C950.7,1564.2,949.5,1564.1,948.8,1564.1"/>
		<path class="st5" d="M1152.9,1543.7c18-2.2,33.4-22.1,39.7-59.7c5.3-31.4,7.8-58.7,9.2-68.7c2.5-17,5.5-25.1,28.3-25.1
			c0,0-18.8,132.6-23.9,166.7c-0.7,4.6-3.9,7.3-8.7,7.3c-4.8,0-7.2,0-12.7,0c-1.6,0-2.4-1.4-2.2-2.9c1.4-9.7,2.6-18.7,3.2-22.6
			l-1-0.3c-11.8,19.2-23.5,27.4-45,27.4c-58.1,0-44.6-120.9,51.7-128.2l-2.4,20C1125.9,1467,1117.1,1548,1152.9,1543.7"/>
	</g>
	<g>
		<path class="st5" d="M1332.6,693.4c27.9-40.2,62.9-117.8,151.7-137.4c55.1-12.1,98.2,39.6,53.1,68.4
			C1502.8,646.4,1439.9,618.1,1332.6,693.4"/>
		<path class="st5" d="M921.5,971.5C799.2,769.8,683.5,598,645.4,575.1c-7.1-4.3-17.9-5.9-24.2-5.9l-314.1,0.2
			c56.1,85.5,134.1,194,200.2,274.5C566.1,915.6,659.3,989.5,921.5,971.5"/>
		<path class="st5" d="M1164.1,1161.9c148.7-97.4,168-344.1,315-480.1c-269.6,82.9-210.8,247.2-466.2,375.5
			c19.8,35.1,48.1,78.6,58.6,92.8C1090.9,1176.2,1125.8,1187,1164.1,1161.9"/>
		<path class="st5" d="M979.1,1072.7c21.9,39.1,60.1,93.8,66.7,110.8c8.4,21.8-5.9,40.5-31.5,45.5
			c-81.5,15.6-268.8,22.7-399.1-209.6C684.4,1062.7,836,1103.6,979.1,1072.7"/>
	</g>
</g>
<g id="レイヤー_2">
</g>
</svg>
