<?xml version="1.0" encoding="utf-8"?>
<!-- Generator: Adobe Illustrator 22.1.0, SVG Export Plug-In . SVG Version: 6.00 Build 0)  -->
<svg version="1.1" xmlns="http://www.w3.org/2000/svg" xmlns:xlink="http://www.w3.org/1999/xlink" x="0px" y="0px"
	 viewBox="0 0 1920 1080" style="enable-background:new 0 0 1920 1080;" xml:space="preserve">
<style type="text/css">
	.st0{fill:#FFFFFF;}
	.st1{fill:#9C4998;}
	.st2{fill:#4653A2;}
	.st3{fill:#674498;}
	.st4{fill:#584C9D;}
	.st5{fill:#595757;}
	.st6{fill:#31BDEB;}
	.st7{fill:#EC79AC;}
	.st8{fill:#F5B9D3;}
	.st9{fill:#F8B74A;}
	.st10{fill:#C3D94E;}
	.st11{fill:#FCC92C;}
	.st12{fill:#2E59A7;}
	.st13{fill:#E6A732;}
	.st14{fill:#D18F36;}
	.st15{fill:#040000;}
	.st16{fill:#D39111;}
	.st17{fill:#36B9EC;}
	.st18{fill:#EC7AAC;}
	.st19{fill:#E94746;}
	.st20{fill:#EA5548;}
	.st21{fill:#AACF52;}
	.st22{fill:none;stroke:#999999;stroke-miterlimit:10;}
	.st23{fill:#BFC0C0;}
	.st24{fill:#9FA0A0;}
	.st25{fill:#7D7D7D;}
</style>
<g id="レイヤー_1">
	<rect class="st0" width="1920" height="1080"/>
	<g>
		<path class="st4" d="M875.5,752.4c0.5,3.8,0.2,4.1-3.8,4.1c-0.6,0-5.3,0.1-5.3,0.1l-6.9-37.3h11.4
			C871.8,726,875.1,749.4,875.5,752.4"/>
		<path class="st4" d="M927.4,719.3c0,0-6.4,44.8-6.7,47.4c-0.3,1.8-1.2,2.6-3.1,2.6h-6.7c-0.6,0-1-0.4-0.9-1
			c1.1-6.8,4.3-28.3,5.5-37.5C916.8,720.4,918.4,719.3,927.4,719.3"/>
		<path class="st4" d="M918.7,716.4c-1.9-4.2-2.5-12.5,3.7-15c5.6-2.3,10.4,2.9,6.6,8.2C926.2,713.3,921.1,711.3,918.7,716.4"/>
		<path class="st4" d="M1003.9,719.3c0,0-6.4,44.8-6.7,47.4c-0.3,1.8-1.2,2.6-3.1,2.6h-6.7c-0.6,0-1-0.4-0.9-1
			c1.1-6.8,4.3-28.3,5.5-37.5C993.3,720.4,994.9,719.3,1003.9,719.3"/>
		<path class="st4" d="M995.2,716.4c-1.9-4.2-2.5-12.5,3.7-15c5.6-2.3,10.4,2.9,6.6,8.2C1002.8,713.3,997.7,711.3,995.2,716.4"/>
		<path class="st4" d="M871.3,769.3c-1.8-0.2-2.6-1-3.1-3l-1.3-7.1h9.4c2.6,0,4.5-0.8,5.7-3c2.8-5.4,13-26.8,10.3-33.6
			c-0.9-2.2-1.1-3.2,1.8-3.2h12.3c-6,16.8-13,36.3-19.4,46.9c-1.2,2.1-2.8,3-5.2,3c-0.5,0-9.1,0-9.4,0
			C872,769.3,871.5,769.3,871.3,769.3"/>
		<path class="st4" d="M952,752.4c0.5,3.8,0.2,4.1-3.8,4.1c-0.6,0-5.3,0.1-5.3,0.1l-6.9-37.3h11.4C948.3,726,951.6,749.4,952,752.4"
			/>
		<path class="st4" d="M947.8,769.3c-1.8-0.2-2.6-1-3.1-3l-1.3-7.1h9.4c2.6,0,4.5-0.8,5.7-3c2.8-5.4,13-26.8,10.3-33.6
			c-0.9-2.2-1.1-3.2,1.8-3.2H983c-6,16.8-13,36.3-19.4,46.9c-1.2,2.1-2.8,3-5.2,3c-0.5,0-9.1,0-9.4,0
			C948.5,769.3,948,769.3,947.8,769.3"/>
		<path class="st4" d="M1028.5,761.2c7.1-0.9,13.2-8.7,15.7-23.6c2.1-12.4,3.1-23.2,3.6-27.2c1-6.7,2.2-9.9,11.2-9.9
			c0,0-7.4,52.4-9.5,65.9c-0.3,1.8-1.5,2.9-3.4,2.9c-1.9,0-2.9,0-5,0c-0.6,0-1-0.6-0.9-1.2c0.5-3.8,1-7.4,1.3-8.9l-0.4-0.1
			c-4.7,7.6-9.3,10.9-17.8,10.9c-23,0-17.6-47.8,20.5-50.7l-1,7.9C1017.8,730.9,1014.3,762.9,1028.5,761.2"/>
	</g>
	<g>
		<path class="st1" d="M1099.5,425.1c11-15.9,24.9-46.6,60-54.3c21.8-4.8,38.8,15.7,21,27C1166.8,406.5,1142,395.3,1099.5,425.1"/>
		<path class="st2" d="M937,535c-48.3-79.7-94.1-147.7-109.2-156.7c-2.8-1.7-7.1-2.3-9.5-2.3L694,376.1
			c22.2,33.8,53,76.7,79.2,108.5C796.5,512.9,833.3,542.1,937,535"/>
		<path class="st3" d="M1032.9,610.3c58.8-38.5,66.4-136.1,124.5-189.8c-106.6,32.8-83.3,97.7-184.3,148.5
			c7.8,13.9,19,31.1,23.2,36.7C1004,615.9,1017.8,620.2,1032.9,610.3"/>
		<path class="st4" d="M959.8,575c8.7,15.5,23.8,37.1,26.4,43.8c3.3,8.6-2.3,16-12.4,18c-32.2,6.2-106.3,9-157.8-82.9
			C843.2,571.1,903.2,587.3,959.8,575"/>
	</g>
</g>
<g id="レイヤー_2">
</g>
</svg>
