<?xml version="1.0" encoding="utf-8"?>
<!-- Generator: Adobe Illustrator 22.1.0, SVG Export Plug-In . SVG Version: 6.00 Build 0)  -->
<svg version="1.1" xmlns="http://www.w3.org/2000/svg" xmlns:xlink="http://www.w3.org/1999/xlink" x="0px" y="0px"
	 viewBox="0 0 1920 1080" style="enable-background:new 0 0 1920 1080;" xml:space="preserve">
<style type="text/css">
	.st0{fill:#FFFFFF;}
	.st1{fill:#9C4998;}
	.st2{fill:#4653A2;}
	.st3{fill:#674498;}
	.st4{fill:#584C9D;}
	.st5{fill:#595757;}
	.st6{fill:#31BDEB;}
	.st7{fill:#EC79AC;}
	.st8{fill:#F5B9D3;}
	.st9{fill:#F8B74A;}
	.st10{fill:#C3D94E;}
	.st11{fill:#FCC92C;}
	.st12{fill:#2E59A7;}
	.st13{fill:#E6A732;}
	.st14{fill:#D18F36;}
	.st15{fill:#040000;}
	.st16{fill:#D39111;}
	.st17{fill:#36B9EC;}
	.st18{fill:#EC7AAC;}
	.st19{fill:#E94746;}
	.st20{fill:#EA5548;}
	.st21{fill:#AACF52;}
	.st22{fill:none;stroke:#999999;stroke-miterlimit:10;}
	.st23{fill:#BFC0C0;}
	.st24{fill:#9FA0A0;}
	.st25{fill:#7D7D7D;}
</style>
<g id="レイヤー_1">
	<rect class="st0" width="1920" height="1080"/>
	<g>
		<g>
			<g>
				<path class="st5" d="M999.9,651.6c-0.2,1.5-0.4,3.4-0.4,4.4h-5.6l-6.8-19.4c-0.6-1.8-1.3-3.8-1.6-5.7h-0.1
					c-0.1,1.6-0.3,3.5-0.6,5.1l-2.5,15.6c-0.2,1.3-0.5,3.6-0.4,4.3h-4.2l4.1-25.9c0.2-1.3,0.5-3.7,0.4-4.4h5.7l7.1,20.7
					c0.5,1.6,0.9,3.2,1.3,4.7h0.1c0.1-1.6,0.3-3.2,0.5-4.5l2.6-16.5c0.2-1.3,0.5-3.7,0.4-4.4h4.3L999.9,651.6z"/>
				<path class="st5" d="M1005.2,650.5c0-7.9,5.5-14,13.2-14h4.7l-2.4,15.1c-0.2,1.2-0.4,2.8-0.4,4.4h-3.2c0-1.7,0.3-3.7,1.3-6.2
					l-0.1,0c-2.2,4.5-4.9,6.7-8.3,6.7C1006.9,656.5,1005.2,654.4,1005.2,650.5z M1018.2,643.8l0.7-4.2h-1.2c-4.9,0-8.7,5.2-8.7,10.2
					c0,2.5,0.7,3.6,2.2,3.6C1014.2,653.3,1017.4,649.1,1018.2,643.8z"/>
				<path class="st5" d="M1025.3,650.6c0-7.9,5.4-14,13-14h1.2l1-6.7c0.3-1.7,0.4-3.6,0.4-4.5l4.1-0.4l-4.2,26.8
					c-0.2,1.5-0.4,3-0.4,4.4h-3.2c0-1.6,0.3-3.8,1.3-6.2l-0.2,0c-2.2,4.4-4.9,6.7-8.3,6.7C1026.9,656.5,1025.3,654.4,1025.3,650.6z
					 M1038.4,643.6l0.6-4h-1.2c-4.9,0-8.7,5.2-8.7,10.3c0,2.5,0.6,3.5,2.2,3.5C1034.4,653.3,1037.6,649,1038.4,643.6z"/>
				<path class="st5" d="M1045.4,650.5c0-7.9,5.5-14,13.2-14h4.7l-2.4,15.1c-0.2,1.2-0.4,2.8-0.4,4.4h-3.3c0-1.7,0.3-3.7,1.3-6.2
					l-0.1,0c-2.2,4.5-4.9,6.7-8.3,6.7C1047,656.5,1045.4,654.4,1045.4,650.5z M1058.4,643.8l0.7-4.2h-1.2c-4.9,0-8.7,5.2-8.7,10.2
					c0,2.5,0.7,3.6,2.2,3.6C1054.4,653.3,1057.6,649.1,1058.4,643.8z"/>
				<path class="st5" d="M1073.4,651.6l2-3.3c2.7,3,5.5,4.6,8.2,4.6c3.4,0,5.5-1.7,5.5-4.5c0-2.3-1.2-3.9-4.7-6.5
					c-4.1-2.9-6.3-5.2-6.2-9.4c0-4.2,3.4-7.2,8.8-7.2c3.2,0,6,0.9,7.9,2.5l-1.8,3.2c-1.6-1.3-3.8-2.1-5.9-2.1c-3,0-4.9,1.5-4.9,3.9
					c0,2.1,1.1,3.6,4.4,6c3.3,2.4,6.6,4.7,6.6,9.5c0,5-3.7,8.2-9.6,8.2C1079.8,656.5,1076.5,654.9,1073.4,651.6z"/>
				<path class="st5" d="M1096.6,649c0-7.5,4.5-12.9,10.8-12.9c1.9,0,3.6,0.5,4.7,1.3l-1.4,2.8c-0.9-0.7-1.9-1-3.2-1
					c-4.2,0-7.1,4.2-7.1,9.5c0,3.1,1.1,4.6,3.5,4.6c1.9,0,3.8-0.6,5.4-1.8l0.5,3.1c-2,1.3-4,1.8-6.5,1.8
					C1099.2,656.5,1096.6,653.9,1096.6,649z"/>
				<path class="st5" d="M1117.8,629.8c0.3-1.8,0.4-3.6,0.4-4.5l4.1-0.4l-1.8,11.7c-0.3,1.9-1.3,4.7-1.9,6.8l0.1,0
					c1.9-4.5,5.1-7.4,8.4-7.4c3.3,0,4.4,1.9,3.6,6.5l-1.5,9.1c-0.3,1.8-0.5,3.5-0.4,4.4h-3.9l2-13.1c0.4-2.8,0.1-3.7-1.3-3.7
					c-2.9,0-6.4,5.1-7.3,10.7l-0.3,1.7c-0.3,1.8-0.5,3.4-0.4,4.3h-3.9L1117.8,629.8z"/>
				<path class="st5" d="M1134.1,648.9c0-7.6,4.9-12.8,10.8-12.8c4.5,0,7.1,2.8,7.1,7.4c0.1,7.6-4.6,13-10.9,13
					C1136.5,656.5,1134.1,653.5,1134.1,648.9z M1148.1,644c0-3.2-1.1-4.8-3.7-4.8c-3.5,0-6.6,4.2-6.6,9.2c0,3.4,1.1,4.9,3.7,4.9
					C1145.2,653.3,1148.2,649.1,1148.1,644z"/>
				<path class="st5" d="M1154.4,648.9c0-7.6,4.9-12.8,10.8-12.8c4.6,0,7.1,2.8,7.1,7.4c0.1,7.6-4.6,13-10.9,13
					C1156.8,656.5,1154.4,653.5,1154.4,648.9z M1168.5,644c0-3.2-1.1-4.8-3.7-4.8c-3.5,0-6.6,4.2-6.6,9.2c0,3.4,1.1,4.9,3.7,4.9
					C1165.5,653.3,1168.5,649.1,1168.5,644z"/>
				<path class="st5" d="M1175.8,649.2l3-19.4c0.3-1.9,0.4-3.6,0.4-4.5l4.1-0.4l-3.7,23.3c-0.6,3.6-0.2,5.1,1.3,5.1
					c0.8,0,1.5-0.1,2.3-0.4l0.3,3c-1.1,0.4-2.4,0.6-3.8,0.6C1176.3,656.5,1175,654.1,1175.8,649.2z"/>
				<path class="st5" d="M1199.1,630.1c0.2-1.3,0.4-3.7,0.4-4.4h15.5l-0.6,3.8c-0.8-0.1-2.8-0.2-4.1-0.2h-7l-1.6,10h10.3l-0.5,3.7
					c-0.8-0.1-2.9-0.2-4.1-0.2h-6.2l-1.4,9c-0.2,1-0.5,3.6-0.4,4.4h-4.2L1199.1,630.1z"/>
				<path class="st5" d="M1214.6,648.9c0-7.5,4.5-12.8,11-12.8c3.4,0,5.4,1.6,5.4,4.5c0,4.4-4.9,7.5-12.5,7.8c0,3.3,1.1,4.9,3.4,4.9
					c2.2,0,4.1-0.6,5.8-1.8l0.4,3.1c-2,1.3-3.9,1.8-6.8,1.8C1217,656.5,1214.6,653.8,1214.6,648.9z M1227.2,641.1c0-1.3-0.8-2-2.3-2
					c-2.9,0-5.4,2.8-6.2,6.9C1223.9,645.7,1227.2,643.8,1227.2,641.1z"/>
				<path class="st5" d="M1232,653.6l1.5-2.9c2,1.8,3.8,2.7,5.5,2.7c1.8,0,2.9-0.6,2.9-2.6c0-1.4-1.4-2.6-3.3-3.9
					c-3.2-2.3-4.2-3.8-4.2-5.9c0.1-3.1,2.5-5,6.3-5c2.3,0,4.2,0.6,5.9,1.8l-1.3,2.7c-1.3-1-2.8-1.6-4.3-1.6c-1.8,0-2.7,0.7-2.7,2
					c0,1.7,1.6,2.8,3.3,4c2.9,1.9,4.1,3.4,4.1,6.3c0,2.9-2.5,5.1-6.4,5.1C1236.5,656.5,1234.2,655.6,1232,653.6z"/>
				<path class="st5" d="M1251.3,649.2l1.5-9.7h-2.9l0.5-3h3l0.2-1.3c0.3-1.7,0.5-3.6,0.4-4.5l4-0.4l-1,6.3h5.2l-0.5,3h-5.2l-1.5,9
					c-0.5,3-0.4,4.7,1.4,4.7c1,0,2.3-0.3,3.3-0.9l0.3,2.9c-1,0.6-3.1,1.2-4.5,1.2C1251.8,656.5,1250.5,654.2,1251.3,649.2z"/>
				<path class="st5" d="M1266.4,640.9c0.3-1.6,0.4-3.4,0.4-4.4h4l-2.4,15.1c-0.3,1.6-0.5,3.4-0.4,4.5h-3.9L1266.4,640.9z
					 M1267.4,630.4c0-1.4,1.1-2.5,2.5-2.5c1.5,0,2.5,1.1,2.5,2.5c0,1.4-1,2.5-2.5,2.5C1268.5,632.9,1267.4,631.7,1267.4,630.4z"/>
				<path class="st5" d="M1273.4,636.5h3.9l1.2,11.2l0.5,4.9h0.1c2.6-4.6,5.4-11.1,6.7-16.2h4c-1.8,6.3-5.3,13.9-9.1,19.5h-4.8
					L1273.4,636.5z"/>
				<path class="st5" d="M1289.9,650.5c0-7.9,5.5-14,13.2-14h4.7l-2.4,15.1c-0.2,1.2-0.4,2.8-0.4,4.4h-3.2c0-1.7,0.3-3.7,1.3-6.2
					l-0.1,0c-2.2,4.5-4.9,6.7-8.3,6.7C1291.5,656.5,1289.9,654.4,1289.9,650.5z M1302.9,643.8l0.7-4.2h-1.2c-4.9,0-8.7,5.2-8.7,10.2
					c0,2.5,0.7,3.6,2.2,3.6C1298.9,653.3,1302.1,649.1,1302.9,643.8z"/>
				<path class="st5" d="M1311.4,649.2l3-19.4c0.3-1.9,0.4-3.6,0.4-4.5l4.1-0.4l-3.7,23.3c-0.6,3.6-0.2,5.1,1.3,5.1
					c0.8,0,1.5-0.1,2.3-0.4l0.3,3c-1.1,0.4-2.4,0.6-3.8,0.6C1311.9,656.5,1310.6,654.1,1311.4,649.2z"/>
				<path class="st5" d="M1328.7,652.8c5.9-5.8,15-14.7,15-20.3c0-2.1-1-3.2-3.4-3.2c-2.1,0-4.6,0.9-6.5,2.1l-0.2-3.6
					c2.4-1.4,5.2-2.1,7.9-2.1c4.2,0,6.4,1.9,6.4,5.5c0,7.2-8,15.2-14.2,21.1l0,0.1c1,0,2,0,3.1,0h4.2c1.4,0,3.3-0.1,4-0.2l-0.6,3.9
					h-16.3L1328.7,652.8z"/>
				<path class="st5" d="M1350.4,646.5c0-10,3.9-20.8,12.6-20.8c5.2,0,7.9,3.7,7.9,10c0,10-3.9,20.8-12.7,20.8
					C1353.1,656.5,1350.4,652.8,1350.4,646.5z M1366.8,635.6c0-4.3-1.4-6.3-4.3-6.3c-5.7,0-8.1,10.4-8.1,17.3c0,4.3,1.4,6.4,4.3,6.4
					C1364.5,652.9,1366.8,642.5,1366.8,635.6z"/>
				<path class="st5" d="M1372.1,652.8c5.9-5.8,15-14.7,15-20.3c0-2.1-1-3.2-3.4-3.2c-2.1,0-4.6,0.9-6.5,2.1l-0.2-3.6
					c2.4-1.4,5.2-2.1,7.9-2.1c4.2,0,6.4,1.9,6.4,5.5c0,7.2-8,15.2-14.2,21.1l0,0.1c1,0,2,0,3.1,0h4.2c1.4,0,3.3-0.1,4-0.2l-0.7,3.9
					h-16.3L1372.1,652.8z"/>
				<path class="st5" d="M1393.7,646.5c0-10,3.9-20.8,12.6-20.8c5.2,0,7.9,3.7,7.9,10c0,10-3.9,20.8-12.7,20.8
					C1396.5,656.5,1393.7,652.8,1393.7,646.5z M1410.2,635.6c0-4.3-1.4-6.3-4.3-6.3c-5.7,0-8.1,10.4-8.1,17.3c0,4.3,1.4,6.4,4.3,6.4
					C1407.8,652.9,1410.2,642.5,1410.2,635.6z"/>
			</g>
		</g>
		<g id="logotype_4_">
			<path class="st4" d="M1013.9,547.4c1.1,8.6,0.5,9.3-8.5,9.3c-1.4,0-11.9,0.2-11.9,0.2l-15.4-83.5h25.6
				C1005.6,488.1,1013,540.7,1013.9,547.4"/>
			<path class="st4" d="M1130.1,473.2c0,0-14.2,100.3-15.1,106.2c-0.6,4-2.7,5.9-6.9,5.9h-15c-1.4,0-2.2-0.9-1.9-2.2
				c2.4-15.3,9.7-63.5,12.3-84.1C1106.4,475.6,1110,473.2,1130.1,473.2"/>
			<path class="st4" d="M1110.7,466.8c-4.1-9.5-5.5-27.9,8.3-33.6c12.5-5.1,23.3,6.6,14.7,18.3
				C1127.6,459.8,1116.1,455.3,1110.7,466.8"/>
			<path class="st4" d="M1301.6,473.2c0,0-14.2,100.3-15.1,106.2c-0.6,4-2.7,5.9-6.9,5.9h-15c-1.4,0-2.2-0.9-1.9-2.2
				c2.4-15.3,9.7-63.5,12.3-84.1C1277.8,475.6,1281.5,473.2,1301.6,473.2"/>
			<path class="st4" d="M1282.2,466.8c-4.1-9.5-5.5-27.9,8.3-33.6c12.5-5.1,23.3,6.6,14.7,18.3
				C1299,459.8,1287.6,455.3,1282.2,466.8"/>
			<path class="st4" d="M1004.4,585.2c-4.1-0.4-5.9-2.2-6.9-6.7l-2.9-15.8h21.1c5.8,0,10.2-1.8,12.8-6.8c6.3-12.2,29.2-60,23-75.2
				c-2-4.9-2.5-7.3,4-7.3h27.7c-13.5,37.7-29.2,81.3-43.5,105.1c-2.8,4.6-6.2,6.7-11.8,6.7c-1.1,0-20.5,0.1-21.2,0.1
				C1006.1,585.3,1005,585.3,1004.4,585.2"/>
			<path class="st4" d="M1185.3,547.4c1.1,8.6,0.5,9.3-8.5,9.3c-1.4,0-11.9,0.2-11.9,0.2l-15.4-83.5h25.6
				C1177,488.1,1184.5,540.7,1185.3,547.4"/>
			<path class="st4" d="M1175.8,585.2c-4.1-0.4-5.9-2.2-6.9-6.7l-2.9-15.8h21.1c5.8,0,10.2-1.8,12.8-6.8c6.3-12.2,29.2-60,23-75.2
				c-2-4.9-2.5-7.3,4-7.3h27.7c-13.5,37.7-29.2,81.3-43.5,105.1c-2.8,4.6-6.2,6.7-11.8,6.7c-1.1,0-20.5,0.1-21.2,0.1
				C1177.5,585.3,1176.4,585.3,1175.8,585.2"/>
			<path class="st4" d="M1356.6,567.2c16-1.9,29.6-19.6,35.1-52.9c4.7-27.8,6.9-52,8.2-60.9c2.2-15.1,4.9-22.2,25.1-22.2
				c0,0-16.7,117.5-21.2,147.7c-0.6,4.1-3.4,6.4-7.7,6.4c-4.3,0-6.4,0-11.3,0c-1.4,0-2.2-1.2-2-2.6c1.2-8.6,2.3-16.6,2.8-20
				l-0.8-0.2c-10.5,17-20.8,24.3-39.9,24.3c-51.5,0-39.5-107.1,45.8-113.6l-2.2,17.7C1332.7,499.2,1324.9,571,1356.6,567.2"/>
		</g>
		<g id="logo_1_">
			<path class="st1" d="M828.7,481.8c9.6-13.9,21.7-40.6,52.3-47.4c19-4.2,33.9,13.7,18.3,23.6C887.4,465.6,865.7,455.8,828.7,481.8
				"/>
			<path class="st2" d="M686.9,577.7c-42.2-69.6-82.1-128.8-95.2-136.7c-2.5-1.5-6.2-2-8.3-2L475,439.1
				c19.4,29.5,46.3,66.9,69.1,94.7C564.3,558.5,596.5,584,686.9,577.7"/>
			<path class="st3" d="M770.6,643.4c51.3-33.6,57.9-118.7,108.6-165.6c-93,28.6-72.7,85.2-160.8,129.5c6.8,12.1,16.6,27.1,20.2,32
				C745.3,648.3,757.4,652.1,770.6,643.4"/>
			<path class="st4" d="M706.8,612.7c7.6,13.5,20.7,32.3,23,38.2c2.9,7.5-2,14-10.9,15.7c-28.1,5.4-92.7,7.8-137.6-72.3
				C605.1,609.2,657.4,623.3,706.8,612.7"/>
		</g>
	</g>
</g>
<g id="レイヤー_2">
</g>
</svg>
