<?xml version="1.0" encoding="utf-8"?>
<!-- Generator: Adobe Illustrator 22.1.0, SVG Export Plug-In . SVG Version: 6.00 Build 0)  -->
<svg version="1.1" id="レイヤー_1" xmlns="http://www.w3.org/2000/svg" xmlns:xlink="http://www.w3.org/1999/xlink" x="0px"
	 y="0px" viewBox="0 0 338.3 479.8" style="enable-background:new 0 0 338.3 479.8;" xml:space="preserve">
<style type="text/css">
	.st0{display:none;fill:#FFFFFF;stroke:#000000;stroke-width:1.5995;stroke-miterlimit:10;}
	.st1{fill:#2D2D2D;}
	.st2{fill:#1E1E1E;}
	.st3{fill:#FFFFFF;}
</style>
<rect x="-3314.1" y="-584.4" class="st0" width="4688.5" height="1489.8"/>
<g>
	<path class="st1" d="M328.3,479.8H10c-5.5,0-10-4.5-10-10V241h338.3v228.8C338.3,475.3,333.8,479.8,328.3,479.8z"/>
	<path class="st2" d="M338.3,238.8H0V10C0,4.5,4.5,0,10,0h318.3c5.5,0,10,4.5,10,10V238.8z"/>
	<g>
		<path class="st3" d="M288.4,136.8l-149,263.7h-79l116.6-212c8-14.1,15.5-27.3,24.4-41.4v-1.4h-60.6c-19.7,0-38.5,0.9-48.4,2.8
			l11.3-72.4h194.6L288.4,136.8z"/>
	</g>
	<rect x="0" y="238.8" class="st2" width="338.3" height="2.2"/>
</g>
</svg>
