<?xml version="1.0" encoding="utf-8"?>
<!-- Generator: Adobe Illustrator 22.1.0, SVG Export Plug-In . SVG Version: 6.00 Build 0)  -->
<svg version="1.1" id="レイヤー_1" xmlns="http://www.w3.org/2000/svg" xmlns:xlink="http://www.w3.org/1999/xlink" x="0px"
	 y="0px" viewBox="0 0 338.3 479.8" style="enable-background:new 0 0 338.3 479.8;" xml:space="preserve">
<style type="text/css">
	.st0{display:none;fill:#FFFFFF;stroke:#000000;stroke-width:1.5995;stroke-miterlimit:10;}
	.st1{fill:#2D2D2D;}
	.st2{fill:#1E1E1E;}
	.st3{fill:#FFFFFF;}
</style>
<rect x="-2944.1" y="-584.4" class="st0" width="4688.5" height="1489.8"/>
<g>
	<path class="st1" d="M328.3,479.8H10c-5.5,0-10-4.5-10-10V241h338.3v228.8C338.3,475.3,333.8,479.8,328.3,479.8z"/>
	<path class="st2" d="M338.3,238.8H0V10C0,4.5,4.5,0,10,0h318.3c5.5,0,10,4.5,10,10V238.8z"/>
	<g>
		<path class="st3" d="M282.9,86.5L254.2,148c-12.7-6.1-24-9.9-42.8-9.9c-29.6,0-55,24.9-67.7,68.6h1.9c16-17.9,39-27.3,60.6-27.3
			c41.8,0,66.3,25.4,66.3,71.9c0,83.7-42.8,153.7-123.1,153.7c-58.3,0-90.2-32-90.2-97.3c0-115.6,50.8-236.4,155.1-236.4
			C243.9,71.4,265.5,76.6,282.9,86.5z M132,306c0,21.1,8.5,31.5,24.9,31.5c27.3,0,39.9-40.4,39.9-69.6c0-17.9-8.9-28.7-23.5-28.7
			C146.1,239.2,132,275.4,132,306z"/>
	</g>
	<rect x="0" y="238.8" class="st2" width="338.3" height="2.2"/>
</g>
</svg>
