<?xml version="1.0" encoding="utf-8"?>
<!-- Generator: Adobe Illustrator 22.1.0, SVG Export Plug-In . SVG Version: 6.00 Build 0)  -->
<svg version="1.1" id="レイヤー_1" xmlns="http://www.w3.org/2000/svg" xmlns:xlink="http://www.w3.org/1999/xlink" x="0px"
	 y="0px" viewBox="0 0 338.3 479.8" style="enable-background:new 0 0 338.3 479.8;" xml:space="preserve">
<style type="text/css">
	.st0{display:none;fill:#FFFFFF;stroke:#000000;stroke-width:1.5995;stroke-miterlimit:10;}
	.st1{fill:#2D2D2D;}
	.st2{fill:#1E1E1E;}
	.st3{fill:#FFFFFF;}
</style>
<rect x="-4054.1" y="-584.4" class="st0" width="4688.5" height="1489.8"/>
<g>
	<path class="st1" d="M328.3,479.8H10c-5.5,0-10-4.5-10-10V241h338.3v228.8C338.3,475.3,333.8,479.8,328.3,479.8z"/>
	<path class="st2" d="M338.3,238.8H0V10C0,4.5,4.5,0,10,0h318.3c5.5,0,10,4.5,10,10V238.8z"/>
	<g>
		<path class="st3" d="M56.7,377.6l28.7-61.1c14.6,10.3,34.8,18.3,58.8,18.3c35.7,0,55.5-26.3,64.4-76.1h-1.4
			c-15.5,18.8-41.4,30.6-66.3,30.6c-39,0-64.9-22.1-64.9-70C76,137,120.6,67.4,199.6,67.4c55.5,0,89.8,30.1,89.8,95.4
			c0,124.6-38.5,238.3-147.6,238.3C108.9,401.1,76,390.3,56.7,377.6z M216.5,165.7c0-22.1-8.5-31-24-31c-28.2,0-40.9,38.5-40.9,68.1
			c0,19.3,8.5,28.7,23.5,28.7C202.9,231.5,216.5,195.7,216.5,165.7z"/>
	</g>
	<rect x="0" y="238.8" class="st2" width="338.3" height="2.2"/>
</g>
</svg>
