<?xml version="1.0" encoding="utf-8"?>
<!-- Generator: Adobe Illustrator 22.1.0, SVG Export Plug-In . SVG Version: 6.00 Build 0)  -->
<svg version="1.1" xmlns="http://www.w3.org/2000/svg" xmlns:xlink="http://www.w3.org/1999/xlink" x="0px" y="0px"
	 viewBox="0 0 1920 1080" style="enable-background:new 0 0 1920 1080;" xml:space="preserve">
<style type="text/css">
	.st0{display:none;fill:#FFFFFF;}
	.st1{fill:#9C4998;}
	.st2{fill:#4653A2;}
	.st3{fill:#674498;}
	.st4{fill:#584C9D;}
	.st5{fill:#595757;}
	.st6{fill:#31BDEB;}
	.st7{fill:#EC79AC;}
	.st8{fill:#F5B9D3;}
	.st9{fill:#F8B74A;}
	.st10{fill:#C3D94E;}
	.st11{fill:#FCC92C;}
	.st12{fill:#2E59A7;}
	.st13{fill:#E6A732;}
	.st14{fill:#D18F36;}
	.st15{fill:#FFFFFF;}
	.st16{fill:#040000;}
	.st17{fill:#D39111;}
	.st18{fill:#36B9EC;}
	.st19{fill:#EC7AAC;}
	.st20{fill:#E94746;}
	.st21{fill:#EA5548;}
	.st22{fill:#AACF52;}
	.st23{fill:none;stroke:#999999;stroke-miterlimit:10;}
	.st24{fill:#BFC0C0;}
	.st25{fill:#9FA0A0;}
	.st26{fill:#7D7D7D;}
</style>
<g id="レイヤー_1">
	<rect class="st0" width="1920" height="1080"/>
	<g>
		<g>
			<g>
				<path class="st5" d="M608.1,742.7c-0.4,2.6-0.8,6.1-0.8,7.9h-10.1L585,715.9c-1.2-3.3-2.2-6.8-2.9-10.1h-0.2
					c-0.2,2.9-0.6,6.2-1.1,9.1l-4.5,28c-0.3,2.4-0.9,6.4-0.7,7.7H568l7.3-46.3c0.4-2.4,0.9-6.6,0.7-7.9h10.2l12.8,37
					c0.9,2.8,1.6,5.7,2.2,8.4h0.2c0.2-2.9,0.5-5.7,0.9-8.1l4.6-29.5c0.4-2.4,0.9-6.6,0.8-7.9h7.7L608.1,742.7z"/>
				<path class="st5" d="M617.6,740.7c0-14.2,9.8-25,23.6-25h8.4l-4.3,27c-0.3,2.1-0.8,5-0.8,7.9h-5.8c0-3.1,0.6-6.6,2.2-11.1
					l-0.2-0.1c-3.9,8-8.8,11.9-14.8,11.9C620.5,751.4,617.6,747.7,617.6,740.7z M640.9,728.7l1.2-7.5h-2.2
					c-8.7,0-15.6,9.3-15.6,18.2c0,4.5,1.2,6.4,3.9,6.4C633.7,745.7,639.4,738.2,640.9,728.7z"/>
				<path class="st5" d="M653.6,740.8c0-14.1,9.7-25.1,23.2-25.1h2.2l1.9-11.9c0.5-3,0.8-6.4,0.7-8.1l7.3-0.8l-7.6,48
					c-0.4,2.7-0.8,5.4-0.8,7.8h-5.8c-0.1-2.9,0.5-6.7,2.2-11.1l-0.3-0.1c-3.9,7.9-8.8,11.9-14.8,11.9
					C656.4,751.4,653.6,747.7,653.6,740.8z M677,728.4l1.1-7.2h-2.1c-8.7,0-15.6,9.2-15.6,18.4c0,4.5,1.2,6.2,3.9,6.2
					C669.7,745.7,675.4,738.1,677,728.4z"/>
				<path class="st5" d="M689.4,740.7c0-14.2,9.8-25,23.6-25h8.4l-4.3,27c-0.3,2.1-0.8,5-0.8,7.9h-5.8c0-3.1,0.6-6.6,2.2-11.1
					l-0.2-0.1c-3.9,8-8.8,11.9-14.8,11.9C692.4,751.4,689.4,747.7,689.4,740.7z M712.7,728.7l1.2-7.5h-2.2
					c-8.7,0-15.6,9.3-15.6,18.2c0,4.5,1.2,6.4,3.9,6.4C705.5,745.7,711.3,738.2,712.7,728.7z"/>
				<path class="st5" d="M739.4,742.6l3.6-5.9c4.8,5.3,9.8,8.2,14.6,8.3c6.1,0.1,9.8-3,9.8-8.1c0-4.1-2.1-6.9-8.4-11.5
					c-7.4-5.3-11.2-9.3-11.2-16.7c0.1-7.6,6.1-12.9,15.8-12.9c5.7,0,10.7,1.6,14.2,4.4l-3.3,5.7c-2.9-2.3-6.7-3.7-10.5-3.7
					c-5.4,0-8.7,2.6-8.8,7c-0.1,3.7,1.9,6.4,7.8,10.8c5.9,4.3,11.8,8.4,11.8,17c0,9-6.6,14.6-17.1,14.6
					C750.9,751.4,745,748.6,739.4,742.6z"/>
				<path class="st5" d="M781,737.9c0-13.3,8.1-23,19.3-23c3.4,0,6.5,0.9,8.4,2.3l-2.6,5c-1.5-1.2-3.4-1.7-5.7-1.7
					c-7.5,0-12.6,7.6-12.6,17c0,5.6,2,8.2,6.2,8.2c3.5,0,6.7-1.1,9.7-3.2l0.9,5.6c-3.6,2.2-7.2,3.3-11.6,3.3
					C785.5,751.4,781,746.7,781,737.9z"/>
				<path class="st5" d="M818.8,703.7c0.5-3.2,0.8-6.4,0.7-8.1l7.3-0.8l-3.3,21c-0.5,3.5-2.3,8.4-3.3,12.2l0.2,0.1
					c3.3-8.1,9.1-13.2,15-13.2c6,0,7.8,3.3,6.5,11.7l-2.6,16.2c-0.5,3.2-0.9,6.3-0.8,7.8h-7l3.6-23.4c0.7-5,0.2-6.6-2.3-6.6
					c-5.3,0-11.4,9.1-13.1,19.1l-0.5,3.1c-0.5,3.2-0.9,6-0.8,7.7h-7.1L818.8,703.7z"/>
				<path class="st5" d="M847.9,737.8c0-13.6,8.8-22.9,19.3-22.9c8.1,0,12.6,5,12.6,13.2c0.2,13.6-8.2,23.2-19.4,23.2
					C852.2,751.4,847.9,746.1,847.9,737.8z M873.1,729c0-5.7-2-8.5-6.7-8.5c-6.3,0-11.8,7.5-11.8,16.5c0,6,1.9,8.7,6.6,8.7
					C867.8,745.7,873.2,738.2,873.1,729z"/>
				<path class="st5" d="M884.2,737.8c0-13.6,8.8-22.9,19.3-22.9c8.1,0,12.6,5,12.6,13.2c0.2,13.6-8.2,23.2-19.4,23.2
					C888.6,751.4,884.2,746.1,884.2,737.8z M909.4,729c0-5.7-2-8.5-6.7-8.5c-6.3,0-11.8,7.5-11.8,16.5c0,6,1.9,8.7,6.6,8.7
					C904.1,745.7,909.6,738.2,909.4,729z"/>
				<path class="st5" d="M922.6,738.3l5.4-34.6c0.5-3.3,0.8-6.4,0.7-8.1l7.3-0.8l-6.6,41.6c-1,6.4-0.3,9.1,2.3,9.1
					c1.5,0,2.7-0.2,4-0.7l0.5,5.3c-2,0.8-4.3,1.2-6.7,1.2C923.4,751.4,921.2,747.1,922.6,738.3z"/>
				<path class="st5" d="M964.1,704.3c0.4-2.4,0.8-6.6,0.7-7.9h27.7l-1.1,6.7c-1.4-0.2-5-0.4-7.3-0.4h-12.6l-2.9,17.8h18.4l-0.9,6.6
					c-1.5-0.2-5.1-0.4-7.4-0.4h-11.2l-2.5,16c-0.3,1.9-0.9,6.4-0.8,7.8h-7.6L964.1,704.3z"/>
				<path class="st5" d="M991.9,737.8c0-13.3,8.1-22.9,19.6-22.9c6.1,0,9.7,2.9,9.6,8.1c0,7.8-8.7,13.4-22.3,14
					c-0.1,6,1.9,8.8,6,8.8c4,0,7.4-1.1,10.4-3.2l0.8,5.5c-3.6,2.3-7,3.3-12.1,3.3C996.2,751.4,991.9,746.5,991.9,737.8z
					 M1014.5,723.9c0-2.3-1.5-3.6-4-3.6c-5.2,0-9.7,5-11.2,12.4C1008.6,732.1,1014.5,728.6,1014.5,723.9z"/>
				<path class="st5" d="M1022.9,746.3l2.6-5.1c3.6,3.2,6.7,4.8,9.9,4.8c3.3,0,5.2-1.2,5.2-4.6c0-2.6-2.5-4.6-5.9-7
					c-5.7-4-7.5-6.7-7.4-10.6c0.2-5.6,4.4-8.9,11.3-8.9c4,0,7.5,1.1,10.5,3.3l-2.4,4.9c-2.3-1.9-5-2.8-7.7-2.8
					c-3.2,0-4.9,1.2-4.9,3.6c0,3.1,2.9,5,6,7.1c5.1,3.5,7.4,6.1,7.4,11.3c-0.1,5.3-4.5,9.1-11.4,9.1
					C1031,751.4,1026.8,749.8,1022.9,746.3z"/>
				<path class="st5" d="M1057.4,738.3l2.7-17.3h-5.3l0.9-5.3h5.4l0.3-2.4c0.5-3.1,0.9-6.4,0.8-8.1l7.1-0.8l-1.8,11.3h9.3l-0.9,5.3
					h-9.2l-2.6,16.1c-0.9,5.3-0.7,8.5,2.6,8.5c1.9,0,4.1-0.5,5.8-1.6l0.5,5.3c-1.8,1.2-5.5,2.1-8.1,2.1
					C1058.4,751.4,1056,747.4,1057.4,738.3z"/>
				<path class="st5" d="M1084.5,723.6c0.5-2.9,0.8-6,0.7-7.9h7.2l-4.3,27c-0.5,2.9-0.9,6-0.8,8h-7L1084.5,723.6z M1086.2,704.7
					c0-2.5,2-4.5,4.4-4.5c2.6,0,4.5,1.9,4.5,4.5c0,2.5-1.9,4.5-4.5,4.5C1088.3,709.2,1086.2,707.2,1086.2,704.7z"/>
				<path class="st5" d="M1096.9,715.7h6.9l2.2,20.1l0.9,8.8h0.2c4.7-8.2,9.7-19.9,12-28.9h7.1c-3.3,11.3-9.5,24.8-16.2,34.9h-8.5
					L1096.9,715.7z"/>
				<path class="st5" d="M1126.4,740.7c0-14.2,9.8-25,23.6-25h8.4l-4.3,27c-0.3,2.1-0.8,5-0.8,7.9h-5.8c0-3.1,0.6-6.6,2.2-11.1
					l-0.2-0.1c-3.9,8-8.8,11.9-14.8,11.9C1129.4,751.4,1126.4,747.7,1126.4,740.7z M1149.7,728.7l1.2-7.5h-2.2
					c-8.7,0-15.6,9.3-15.6,18.2c0,4.5,1.2,6.4,3.9,6.4C1142.5,745.7,1148.3,738.2,1149.7,728.7z"/>
				<path class="st5" d="M1164.9,738.3l5.4-34.6c0.5-3.3,0.8-6.4,0.7-8.1l7.3-0.8l-6.6,41.6c-1,6.4-0.3,9.1,2.3,9.1
					c1.5,0,2.7-0.2,4-0.7l0.5,5.3c-2,0.8-4.3,1.2-6.7,1.2C1165.8,751.4,1163.5,747.1,1164.9,738.3z"/>
				<path class="st5" d="M1195.9,744.7c10.6-10.3,26.9-26.3,26.9-36.3c0-3.7-1.9-5.7-6-5.7c-3.7,0-8.2,1.5-11.5,3.7l-0.3-6.4
					c4.3-2.5,9.2-3.8,14.2-3.8c7.5,0,11.4,3.5,11.4,9.8c0,12.8-14.3,27.2-25.4,37.7l-0.1,0.2c1.7-0.1,3.6-0.1,5.5-0.1h7.5
					c2.5,0,5.8-0.2,7.2-0.4l-1.2,6.9h-29.1L1195.9,744.7z"/>
				<path class="st5" d="M1234.6,733.6c0-17.8,7-37.2,22.5-37.2c9.3,0,14.2,6.7,14.2,17.8c0,17.8-7,37.2-22.6,37.2
					C1239.5,751.4,1234.6,744.7,1234.6,733.6z M1264,714c0-7.7-2.6-11.2-7.7-11.2c-10.2,0-14.4,18.6-14.4,30.9
					c0,7.7,2.6,11.4,7.7,11.4C1259.8,745,1264,726.4,1264,714z"/>
				<path class="st5" d="M1273.4,744.7c10.6-10.3,26.9-26.3,26.9-36.3c0-3.7-1.9-5.7-6-5.7c-3.7,0-8.2,1.5-11.5,3.7l-0.3-6.4
					c4.3-2.5,9.2-3.8,14.2-3.8c7.5,0,11.4,3.5,11.4,9.8c0,12.8-14.3,27.2-25.4,37.7l-0.1,0.2c1.7-0.1,3.6-0.1,5.5-0.1h7.5
					c2.5,0,5.8-0.2,7.2-0.4l-1.2,6.9h-29.1L1273.4,744.7z"/>
				<path class="st5" d="M1312.1,733.6c0-17.8,7-37.2,22.5-37.2c9.3,0,14.2,6.7,14.2,17.8c0,17.8-7,37.2-22.6,37.2
					C1317,751.4,1312.1,744.7,1312.1,733.6z M1341.5,714c0-7.7-2.6-11.2-7.7-11.2c-10.2,0-14.4,18.6-14.4,30.9
					c0,7.7,2.6,11.4,7.7,11.4C1337.3,745,1341.5,726.4,1341.5,714z"/>
			</g>
		</g>
		<g id="logotype_3_">
			<path class="st5" d="M633.1,556.4c1.9,15.4,0.8,16.5-15.2,16.5c-2.5,0-21.3,0.4-21.3,0.4L569,424.1h45.7
				C618.3,450.5,631.6,544.4,633.1,556.4"/>
			<path class="st5" d="M840.9,423.8c0,0-25.5,179.4-27,189.8c-1.1,7.2-4.8,10.5-12.3,10.5h-26.9c-2.6,0-3.9-1.5-3.5-4
				c4.2-27.3,17.4-113.5,22-150.3C798.4,428.1,804.9,423.8,840.9,423.8"/>
			<path class="st5" d="M806.2,412.2c-7.4-16.9-9.9-49.9,14.8-60.1c22.4-9.2,41.6,11.8,26.3,32.6
				C836.3,399.8,815.8,391.7,806.2,412.2"/>
			<path class="st5" d="M1147.4,423.8c0,0-25.5,179.4-27,189.8c-1.1,7.2-4.8,10.5-12.3,10.5h-26.9c-2.6,0-3.9-1.5-3.5-4
				c4.2-27.3,17.4-113.5,22-150.3C1104.9,428.1,1111.4,423.8,1147.4,423.8"/>
			<path class="st5" d="M1112.7,412.2c-7.4-16.9-9.9-49.9,14.8-60.1c22.4-9.2,41.6,11.8,26.3,32.6
				C1142.8,399.8,1122.3,391.7,1112.7,412.2"/>
			<path class="st5" d="M616.1,624c-7.3-0.7-10.5-3.9-12.4-12l-5.1-28.2h37.8c10.4,0,18.2-3.2,22.8-12.2
				c11.2-21.8,52.2-107.2,41.1-134.5c-3.5-8.7-4.4-13,7.2-13h49.5C733,491.5,704.9,569.4,679.2,612c-5,8.2-11.1,12.1-21,12.1
				c-1.9,0-36.6,0.1-37.8,0.1C619.2,624.1,617.2,624.1,616.1,624"/>
			<path class="st5" d="M939.5,556.4c1.9,15.4,0.8,16.5-15.2,16.5c-2.5,0-21.3,0.4-21.3,0.4l-27.5-149.3h45.7
				C924.7,450.5,938,544.4,939.5,556.4"/>
			<path class="st5" d="M922.6,624c-7.3-0.7-10.5-3.9-12.4-12l-5.1-28.2h37.8c10.4,0,18.2-3.2,22.8-12.2
				c11.2-21.8,52.2-107.2,41.1-134.5c-3.5-8.7-4.4-13,7.2-13h49.5c-24.1,67.4-52.1,145.4-77.8,187.9c-5,8.2-11.1,12.1-21,12.1
				c-1.9,0-36.6,0.1-37.8,0.1C925.6,624.1,923.6,624.1,922.6,624"/>
			<path class="st5" d="M1245.7,591.7c28.5-3.4,52.9-35,62.8-94.5c8.3-49.7,12.3-93,14.6-108.8c3.9-26.9,8.7-39.8,44.9-39.8
				c0,0-29.8,210.1-37.9,264c-1.1,7.3-6.2,11.5-13.8,11.5c-7.6,0-11.4,0.1-20.2,0.1c-2.6,0-3.9-2.2-3.5-4.7
				c2.2-15.3,4.2-29.7,5-35.7l-1.5-0.4c-18.7,30.4-37.3,43.5-71.3,43.5c-92,0-70.6-191.5,81.9-203l-3.9,31.7
				C1203,470.2,1189.1,598.5,1245.7,591.7"/>
		</g>
	</g>
</g>
<g id="レイヤー_2">
</g>
</svg>
