<?xml version="1.0" encoding="utf-8"?>
<!-- Generator: Adobe Illustrator 22.1.0, SVG Export Plug-In . SVG Version: 6.00 Build 0)  -->
<svg version="1.1" xmlns="http://www.w3.org/2000/svg" xmlns:xlink="http://www.w3.org/1999/xlink" x="0px" y="0px"
	 viewBox="0 0 1920 1080" style="enable-background:new 0 0 1920 1080;" xml:space="preserve">
<style type="text/css">
	.st0{display:none;fill:#FFFFFF;}
	.st1{fill:#9C4998;}
	.st2{fill:#4653A2;}
	.st3{fill:#674498;}
	.st4{fill:#584C9D;}
	.st5{fill:#595757;}
	.st6{fill:#31BDEB;}
	.st7{fill:#EC79AC;}
	.st8{fill:#F5B9D3;}
	.st9{fill:#F8B74A;}
	.st10{fill:#C3D94E;}
	.st11{fill:#FCC92C;}
	.st12{fill:#2E59A7;}
	.st13{fill:#E6A732;}
	.st14{fill:#D18F36;}
	.st15{fill:#FFFFFF;}
	.st16{fill:#040000;}
	.st17{fill:#D39111;}
	.st18{fill:#36B9EC;}
	.st19{fill:#EC7AAC;}
	.st20{fill:#E94746;}
	.st21{fill:#EA5548;}
	.st22{fill:#AACF52;}
	.st23{fill:none;stroke:#999999;stroke-miterlimit:10;}
	.st24{fill:#BFC0C0;}
	.st25{fill:#9FA0A0;}
	.st26{fill:#7D7D7D;}
</style>
<g id="レイヤー_1">
	<rect class="st0" width="1920" height="1080"/>
	<g>
		<g>
			<path class="st5" d="M920,597.3c1.4,11.1,0.6,11.9-11,11.9c-1.8,0-15.4,0.3-15.4,0.3l-19.8-107.6h33
				C909.3,520.9,918.9,588.7,920,597.3"/>
			<path class="st5" d="M1069.9,501.7c0,0-18.4,129.4-19.5,136.9c-0.8,5.2-3.5,7.6-8.9,7.6h-19.4c-1.9,0-2.8-1.1-2.5-2.9
				c3-19.7,12.6-81.8,15.9-108.4C1039.3,504.8,1044,501.7,1069.9,501.7"/>
			<path class="st5" d="M1044.9,493.4c-5.3-12.2-7.1-36,10.7-43.3c16.1-6.6,30,8.5,19,23.5C1066.6,484.5,1051.8,478.6,1044.9,493.4"
				/>
			<path class="st5" d="M1290.9,501.7c0,0-18.4,129.4-19.5,136.9c-0.8,5.2-3.5,7.6-8.9,7.6h-19.4c-1.9,0-2.8-1.1-2.5-2.9
				c3-19.7,12.6-81.8,15.9-108.4C1260.3,504.8,1265,501.7,1290.9,501.7"/>
			<path class="st5" d="M1265.9,493.4c-5.3-12.2-7.1-36,10.7-43.3c16.1-6.6,30,8.5,19,23.5C1287.6,484.5,1272.8,478.6,1265.9,493.4"
				/>
			<path class="st5" d="M907.8,646.1c-5.3-0.5-7.6-2.8-8.9-8.7l-3.7-20.4h27.2c7.5,0,13.1-2.3,16.5-8.8c8.1-15.7,37.7-77.3,29.7-97
				c-2.6-6.3-3.2-9.4,5.2-9.4h35.7c-17.3,48.6-37.6,104.8-56.1,135.5c-3.6,5.9-8,8.7-15.2,8.7c-1.4,0-26.4,0.1-27.3,0.1
				C910,646.2,908.6,646.2,907.8,646.1"/>
			<path class="st5" d="M1141,597.3c1.4,11.1,0.6,11.9-11,11.9c-1.8,0-15.4,0.3-15.4,0.3l-19.8-107.6h33
				C1130.3,520.9,1139.9,588.7,1141,597.3"/>
			<path class="st5" d="M1128.8,646.1c-5.3-0.5-7.6-2.8-8.9-8.7l-3.7-20.4h27.2c7.5,0,13.1-2.3,16.5-8.8c8.1-15.7,37.7-77.3,29.7-97
				c-2.6-6.3-3.2-9.4,5.2-9.4h35.7c-17.3,48.6-37.6,104.8-56.1,135.5c-3.6,5.9-8,8.7-15.2,8.7c-1.4,0-26.4,0.1-27.3,0.1
				C1131,646.2,1129.5,646.2,1128.8,646.1"/>
			<path class="st5" d="M1361.8,622.8c20.6-2.5,38.1-25.2,45.3-68.2c6-35.8,8.9-67.1,10.5-78.5c2.8-19.4,6.3-28.7,32.4-28.7
				c0,0-21.5,151.5-27.3,190.4c-0.8,5.2-4.4,8.3-9.9,8.3c-5.5,0-8.2,0.1-14.5,0.1c-1.8,0-2.8-1.6-2.5-3.4c1.6-11.1,3-21.4,3.6-25.8
				l-1.1-0.3c-13.5,21.9-26.9,31.3-51.4,31.3c-66.3,0-50.9-138.1,59.1-146.4l-2.8,22.9C1331,535.2,1321,627.7,1361.8,622.8"/>
		</g>
		<g>
			<path class="st5" d="M754,489.8c8.3-11.9,18.6-34.9,45-40.7c16.3-3.6,29.1,11.7,15.7,20.3C804.4,475.8,785.8,467.4,754,489.8"/>
			<path class="st5" d="M632.1,572.2c-36.2-59.8-70.5-110.7-81.8-117.5c-2.1-1.3-5.3-1.7-7.2-1.7L450,453
				c16.6,25.3,39.8,57.5,59.3,81.4C526.8,555.6,554.4,577.5,632.1,572.2"/>
			<path class="st5" d="M704,628.6c44.1-28.9,49.8-102,93.4-142.3c-79.9,24.6-62.5,73.3-138.2,111.3c5.9,10.4,14.3,23.3,17.4,27.5
				C682.3,632.8,692.7,636.1,704,628.6"/>
			<path class="st5" d="M649.2,602.2C655.7,613.8,667,630,669,635c2.5,6.5-1.7,12-9.3,13.5c-24.2,4.6-79.7,6.7-118.3-62.1
				C561.8,599.2,606.8,611.4,649.2,602.2"/>
		</g>
	</g>
</g>
<g id="レイヤー_2">
</g>
</svg>
