<?xml version="1.0" encoding="utf-8"?>
<!-- Generator: Adobe Illustrator 22.1.0, SVG Export Plug-In . SVG Version: 6.00 Build 0)  -->
<svg version="1.1" id="レイヤー_1" xmlns="http://www.w3.org/2000/svg" xmlns:xlink="http://www.w3.org/1999/xlink" x="0px"
	 y="0px" viewBox="0 0 338.3 479.8" style="enable-background:new 0 0 338.3 479.8;" xml:space="preserve">
<style type="text/css">
	.st0{display:none;fill:#FFFFFF;stroke:#000000;stroke-width:1.5995;stroke-miterlimit:10;}
	.st1{fill:#2D2D2D;}
	.st2{fill:#1E1E1E;}
	.st3{fill:#FFFFFF;}
</style>
<rect x="-2204.1" y="-584.4" class="st0" width="4688.5" height="1489.8"/>
<g>
	<path class="st1" d="M328.3,479.8H10c-5.5,0-10-4.5-10-10V241h338.3v228.8C338.3,475.3,333.8,479.8,328.3,479.8z"/>
	<path class="st2" d="M338.3,238.8H0V10C0,4.5,4.5,0,10,0h318.3c5.5,0,10,4.5,10,10V238.8z"/>
	<g>
		<path class="st3" d="M183.8,321.2H46.6l8.5-54.1L222.8,68.8h71l-30.5,191.3h37.6l-9.4,61.1h-38.1l-3.3,21.6
			c-2.8,18.3-5.2,40-4.7,50.3h-72.9L183.8,321.2z M203.1,209.3c2.3-14.1,4.7-25.9,8.9-43.2h-1.9l-76.6,93.1l-0.5,1.4
			c9.4-0.5,18.8-0.5,27.7-0.5h33.8L203.1,209.3z"/>
	</g>
	<rect x="0" y="238.8" class="st2" width="338.3" height="2.2"/>
</g>
</svg>
