<?xml version="1.0" encoding="utf-8"?>
<!-- Generator: Adobe Illustrator 22.1.0, SVG Export Plug-In . SVG Version: 6.00 Build 0)  -->
<svg version="1.1" id="レイヤー_1" xmlns="http://www.w3.org/2000/svg" xmlns:xlink="http://www.w3.org/1999/xlink" x="0px"
	 y="0px" viewBox="0 0 338.3 479.8" style="enable-background:new 0 0 338.3 479.8;" xml:space="preserve">
<style type="text/css">
	.st0{display:none;fill:#FFFFFF;stroke:#000000;stroke-width:1.5995;stroke-miterlimit:10;}
	.st1{fill:#2D2D2D;}
	.st2{fill:#1E1E1E;}
	.st3{fill:#FFFFFF;}
</style>
<rect x="-1834.1" y="-584.4" class="st0" width="4688.5" height="1489.8"/>
<g>
	<path class="st1" d="M328.3,479.8H10c-5.5,0-10-4.5-10-10V241h338.3v228.8C338.3,475.3,333.8,479.8,328.3,479.8z"/>
	<path class="st2" d="M338.3,238.8H0V10C0,4.5,4.5,0,10,0h318.3c5.5,0,10,4.5,10,10V238.8z"/>
	<g>
		<path class="st3" d="M49.7,374.8l29.6-61.6c18.8,14.1,37.6,20.7,60.2,20.7c30.1,0,47-17.4,47-42.3c0-19.3-14.6-29.1-36.7-29.1
			c-12.2,0-26.3,1.4-37.6,2.8l9.4-58.8l24.9-2.8c31-3.3,52.2-19.3,52.2-45.1c0-14.6-9.9-24.4-26.8-24.4c-21.1,0-43.2,8.5-63.9,21.6
			l-4.7-62.5c26.8-15,63.9-25.9,96.8-25.9c50.8,0,77.1,23,77.1,63c0,41.4-23,76.1-57.8,95.4v0.9c26.8,12.2,41.4,35.7,41.4,64.4
			c0,66.7-49.8,110-120.8,110C101.8,401.1,68.5,391.3,49.7,374.8z"/>
	</g>
	<rect x="0" y="238.8" class="st2" width="338.3" height="2.2"/>
</g>
</svg>
