<?xml version="1.0" encoding="utf-8"?>
<!-- Generator: Adobe Illustrator 22.1.0, SVG Export Plug-In . SVG Version: 6.00 Build 0)  -->
<svg version="1.1" id="レイヤー_1" xmlns="http://www.w3.org/2000/svg" xmlns:xlink="http://www.w3.org/1999/xlink" x="0px"
	 y="0px" viewBox="0 0 338.3 479.8" style="enable-background:new 0 0 338.3 479.8;" xml:space="preserve">
<style type="text/css">
	.st0{display:none;fill:#FFFFFF;stroke:#000000;stroke-width:1.5995;stroke-miterlimit:10;}
	.st1{fill:#2D2D2D;}
	.st2{fill:#1E1E1E;}
	.st3{fill:#FFFFFF;}
</style>
<rect x="-3684.1" y="-584.4" class="st0" width="4688.5" height="1489.8"/>
<g>
	<path class="st1" d="M328.3,479.8H10c-5.5,0-10-4.5-10-10V241h338.3v228.8C338.3,475.3,333.8,479.8,328.3,479.8z"/>
	<path class="st2" d="M338.3,238.8H0V10C0,4.5,4.5,0,10,0h318.3c5.5,0,10,4.5,10,10V238.8z"/>
	<g>
		<path class="st3" d="M59.5,334.2c0-44.7,27.3-81.3,68.2-103.9c-21.6-11.3-37.1-34.3-37.1-63c0-56.4,46.1-95.9,112.3-95.9
			c55.5,0,91.2,26.3,91.2,67.7c0,40-24,72.9-60.6,91.7c26.3,17.4,40,41.4,40,70.5c0,65.8-47,103.9-118.4,103.9
			C94.8,405.1,59.5,379.3,59.5,334.2z M200.1,305.5c0-16.4-9.4-32.9-24.9-40.9c-23.5,11.3-40.4,30.6-40.4,51.7
			c0,14.6,8.5,24,27.7,24C186,340.3,200.1,327.6,200.1,305.5z M220.7,154.1c0-12.7-8.9-21.6-24.4-21.6c-21.6,0-33.8,15.5-33.8,33.8
			c0,15,7.5,24.9,22.1,35.7C208.5,187.5,220.7,173.4,220.7,154.1z"/>
	</g>
	<rect x="0" y="238.8" class="st2" width="338.3" height="2.2"/>
</g>
</svg>
