<?xml version="1.0" encoding="utf-8"?>
<!-- Generator: Adobe Illustrator 22.1.0, SVG Export Plug-In . SVG Version: 6.00 Build 0)  -->
<svg version="1.1" id="レイヤー_1" xmlns="http://www.w3.org/2000/svg" xmlns:xlink="http://www.w3.org/1999/xlink" x="0px"
	 y="0px" viewBox="0 0 338.3 479.8" style="enable-background:new 0 0 338.3 479.8;" xml:space="preserve">
<style type="text/css">
	.st0{display:none;fill:#FFFFFF;stroke:#000000;stroke-width:1.5995;stroke-miterlimit:10;}
	.st1{fill:#2D2D2D;}
	.st2{fill:#1E1E1E;}
	.st3{fill:#FFFFFF;}
</style>
<rect x="-2574.1" y="-584.4" class="st0" width="4688.5" height="1489.8"/>
<g>
	<path class="st1" d="M328.3,479.8H10c-5.5,0-10-4.5-10-10V241h338.3v228.8C338.3,475.3,333.8,479.8,328.3,479.8z"/>
	<path class="st2" d="M338.3,238.8H0V10C0,4.5,4.5,0,10,0h318.3c5.5,0,10,4.5,10,10V238.8z"/>
	<g>
		<path class="st3" d="M59.1,381.6l29.1-62.5c16.9,12.2,34.3,18.8,56.4,18.8c31.5,0,54-22.1,54-54.1c0-24.4-15.5-34.8-56.4-34.8H99
			l42.3-173h150.4L280,146.6c-8-1.4-29.1-2.8-48.4-2.8h-42.8L175.6,196h10.8c55.9,0,87.9,29.1,87.9,79
			c0,75.7-50.8,130.2-127.4,130.2C110.3,405.1,82.6,397.6,59.1,381.6z"/>
	</g>
	<rect x="0" y="238.8" class="st2" width="338.3" height="2.2"/>
</g>
</svg>
