<?xml version="1.0" encoding="utf-8"?>
<!-- Generator: Adobe Illustrator 22.1.0, SVG Export Plug-In . SVG Version: 6.00 Build 0)  -->
<svg version="1.1" id="レイヤー_1" xmlns="http://www.w3.org/2000/svg" xmlns:xlink="http://www.w3.org/1999/xlink" x="0px"
	 y="0px" viewBox="0 0 338.3 479.8" style="enable-background:new 0 0 338.3 479.8;" xml:space="preserve">
<style type="text/css">
	.st0{display:none;fill:#FFFFFF;stroke:#000000;stroke-width:1.5995;stroke-miterlimit:10;}
	.st1{fill:#2D2D2D;}
	.st2{fill:#1E1E1E;}
	.st3{fill:#FFFFFF;}
</style>
<rect x="-1464.1" y="-584.4" class="st0" width="4688.5" height="1489.8"/>
<g>
	<path class="st1" d="M328.3,479.8H10c-5.5,0-10-4.5-10-10V241h338.3v228.8C338.3,475.3,333.8,479.8,328.3,479.8z"/>
	<path class="st2" d="M338.3,238.8H0V10C0,4.5,4.5,0,10,0h318.3c5.5,0,10,4.5,10,10V238.8z"/>
	<g>
		<path class="st3" d="M60.3,336.7c83.2-77.6,139.6-140.1,139.6-177.2c0-16.4-9.4-24-27.3-24c-21.2,0-48.4,10.8-67.2,22.1l-1.9-64.4
			c32-16.9,64.9-25.9,101.1-25.9c49.8,0,74.7,24,74.7,62.5c0,71-65.3,142.4-126.4,197.4l-0.5,1.9c9.4-0.5,21.1-0.5,31.5-0.5h22.6
			c16.9,0,34.8-0.9,46.1-2.8l-11.3,70.5H50.9L60.3,336.7z"/>
	</g>
	<rect x="0" y="238.8" class="st2" width="338.3" height="2.2"/>
</g>
</svg>
